<!DOCTYPE svg PUBLIC "-//W3C//DTD SVG 20010904//EN" "http://www.w3.org/TR/2001/REC-SVG-20010904/DTD/svg10.dtd">
<svg version="1.0" xmlns="http://www.w3.org/2000/svg" width="120px" height="138px" viewBox="0 0 1200 1380" preserveAspectRatio="xMidYMid meet">
<g id="layer101" fill="#000000" stroke="none">
</g>
<g id="layer102" fill="#1d2717" stroke="none">
<path d="M440 1210 c0 -12 -7 -35 -16 -52 -21 -40 -12 -131 16 -170 11 -15 20 -31 20 -35 0 -4 -18 -19 -39 -32 -72 -44 -151 -211 -151 -319 0 -88 46 -187 99 -214 18 -9 45 -28 60 -41 61 -56 89 -65 194 -62 111 4 150 20 224 94 46 46 49 47 89 26 16 -8 49 -15 73 -15 l45 0 -26 28 c-35 38 -48 82 -54 192 -12 206 -75 305 -251 393 -39 20 -91 39 -115 43 -53 8 -71 23 -88 73 -9 30 -17 37 -31 34 -13 -4 -20 2 -25 21 -3 14 -4 33 0 41 3 9 0 15 -9 15 -8 0 -15 -9 -15 -20z"/>
</g>
<g id="layer103" fill="#346125" stroke="none">
<path d="M440 1113 c0 -43 7 -72 31 -120 17 -35 28 -67 24 -71 -4 -4 -10 -1 -12 6 -11 30 -87 -8 -118 -60 -18 -31 -15 -34 15 -16 36 23 32 -1 -8 -49 -42 -51 -78 -113 -64 -113 4 0 6 -30 4 -67 -3 -62 0 -73 30 -123 l33 -55 5 71 c4 43 13 82 24 99 12 18 19 51 21 101 4 88 32 155 76 181 16 10 29 21 29 25 0 4 17 12 38 17 71 20 234 -12 257 -49 9 -15 -1 -12 -48 12 -34 18 -59 23 -129 23 -101 0 -114 -8 -166 -106 -43 -80 -49 -131 -22 -202 20 -54 25 -59 84 -88 57 -28 67 -30 103 -20 52 14 80 46 88 103 6 42 4 50 -18 72 -29 29 -68 34 -87 11 -21 -25 -4 -48 30 -40 25 6 30 3 36 -19 8 -32 -3 -64 -26 -76 -18 -10 -18 -8 -4 17 22 44 18 63 -14 63 -51 0 -67 35 -32 70 32 32 73 26 110 -17 29 -33 32 -40 26 -82 -7 -55 -31 -90 -77 -113 -44 -23 -96 -23 -134 0 -43 27 -95 83 -101 109 -13 51 -31 20 -41 -67 -11 -109 58 -203 176 -240 40 -13 67 -17 71 -11 3 6 21 11 40 12 52 4 81 21 142 88 44 48 58 71 67 111 14 63 14 174 1 220 -8 32 -8 33 5 16 22 -29 28 -79 21 -164 -13 -144 -15 -134 28 -158 21 -12 47 -19 58 -16 19 5 19 5 0 26 -23 25 -42 77 -43 120 -1 30 -1 30 -10 6 -6 -18 -7 -12 -3 22 7 61 -10 156 -43 241 -21 53 -37 77 -71 105 -24 20 -49 37 -56 39 -75 16 -174 47 -213 67 -57 29 -87 58 -108 109 -8 20 -17 37 -20 37 -3 0 -5 -26 -5 -57z m353 -265 c14 -11 4 -13 -62 -13 -88 0 -110 -10 -163 -76 -65 -80 -40 -199 42 -199 32 0 40 -14 14 -24 -68 -26 -119 65 -98 173 9 45 76 117 127 134 52 19 118 21 140 5z"/>
<path d="M490 1133 c1 -11 26 -43 33 -43 4 0 1 11 -5 25 -10 23 -28 35 -28 18z"/>
<path d="M644 1025 c22 -17 36 -19 36 -6 0 10 -24 21 -43 21 -7 0 -3 -7 7 -15z"/>
</g>
<g id="layer104" fill="#379e2b" stroke="none">
<path d="M452 1083 c3 -49 10 -68 28 -88 27 -29 84 -49 120 -43 23 3 22 5 -15 25 -22 12 -34 22 -27 23 22 0 13 19 -19 35 -16 9 -44 37 -61 63 l-30 47 4 -62z"/>
<path d="M402 894 c-34 -33 -34 -34 -6 -15 32 21 61 51 50 51 -3 0 -23 -16 -44 -36z"/>
<path d="M630 881 c-38 -12 -85 -38 -99 -55 -11 -14 -11 -16 3 -16 15 0 14 -4 -5 -32 -25 -35 -39 -131 -20 -142 7 -5 11 7 11 36 0 45 19 83 64 131 36 39 85 57 156 57 57 0 78 11 44 24 -21 8 -123 6 -154 -3z"/>
<path d="M870 887 c0 -5 5 -18 11 -29 11 -20 10 -20 -12 -4 -24 16 -60 22 -58 9 4 -28 -4 -31 -68 -30 -81 2 -126 -19 -172 -77 -26 -32 -31 -48 -31 -91 0 -61 31 -105 75 -105 35 0 31 -19 -5 -27 -17 -3 -29 -11 -27 -17 6 -17 70 -10 84 10 17 23 17 37 -1 31 -12 -5 -12 -2 0 21 8 15 14 35 14 46 0 15 -5 17 -26 12 -51 -13 -76 48 -32 78 37 26 72 20 107 -19 71 -82 2 -215 -112 -215 -26 0 -60 6 -75 14 -35 19 -88 75 -97 104 -16 55 -35 10 -35 -86 0 -73 15 -108 68 -157 40 -38 161 -84 172 -66 3 6 21 11 40 12 19 2 46 8 60 15 34 17 128 117 141 150 15 42 23 204 11 247 -13 47 -6 48 14 2 17 -41 20 -176 5 -225 -10 -32 -9 -37 14 -57 15 -13 38 -23 52 -23 25 0 25 1 9 19 -11 12 -20 42 -23 78 -2 32 -7 60 -10 63 -3 3 -4 -17 -1 -43 3 -40 1 -45 -9 -30 -16 21 -16 31 -2 72 14 40 -4 167 -32 225 -10 22 -19 45 -19 51 0 13 -29 54 -30 42z"/>
<path d="M485 808 c-4 -13 -11 -25 -15 -28 -4 -3 -11 -16 -15 -28 -6 -21 -5 -23 13 -13 11 6 22 25 25 48 7 43 2 55 -8 21z"/>
<path d="M359 773 c-39 -47 -40 -50 -24 -57 9 -3 13 -2 10 4 -3 6 -2 10 3 10 9 0 35 50 29 56 -2 2 -10 -4 -18 -13z"/>
<path d="M388 718 c-41 -65 -53 -128 -39 -194 16 -70 26 -74 27 -11 0 30 10 74 23 103 15 35 21 66 19 98 l-3 46 -27 -42z"/>
<path d="M640 700 c-12 -7 -7 -12 21 -24 19 -8 41 -27 49 -43 l14 -28 4 29 c2 19 -4 36 -19 52 -24 25 -45 30 -69 14z"/>
</g>
<g id="layer105" fill="#6e2f6c" stroke="none">
<path d="M870 887 c0 -5 5 -18 11 -29 11 -20 10 -20 -12 -4 -25 17 -64 22 -54 7 3 -6 -1 -15 -8 -22 -11 -11 -9 -17 15 -37 36 -30 29 -41 -9 -15 -34 24 -87 43 -121 43 -35 0 -93 -36 -124 -77 -55 -72 -26 -193 47 -193 35 0 31 -19 -5 -27 -17 -3 -29 -11 -27 -17 6 -17 70 -10 84 10 17 23 17 37 -1 31 -12 -5 -12 -2 0 21 8 15 14 35 14 46 0 15 -5 17 -26 12 -51 -13 -76 48 -32 78 37 26 72 20 107 -19 48 -55 36 -132 -27 -185 -34 -29 -42 -31 -100 -28 -58 4 -65 7 -106 47 -25 24 -47 55 -51 70 -6 25 -7 25 -21 7 -19 -27 -19 -148 1 -187 28 -52 86 -98 154 -119 40 -13 67 -17 71 -11 3 6 21 11 40 12 19 2 47 8 61 15 43 21 137 131 144 167 9 52 12 210 4 240 -4 15 -5 27 -3 27 12 0 34 -74 35 -117 0 -26 4 -57 8 -68 7 -17 9 -16 15 13 10 41 -11 165 -35 216 -11 22 -19 45 -19 51 0 13 -29 54 -30 42z"/>
<path d="M717 587 c-11 -29 -9 -43 4 -30 6 6 9 19 7 29 -3 18 -4 18 -11 1z"/>
<path d="M960 534 c0 -21 5 -46 10 -54 7 -10 8 1 4 35 -8 62 -14 70 -14 19z"/>
<path d="M500 301 c0 -10 30 -24 37 -17 3 2 -5 9 -16 16 -12 6 -21 7 -21 1z"/>
</g>
<g id="layer106" fill="#5a4e49" stroke="none">
<path d="M876 871 c4 -17 3 -21 -6 -16 -7 4 -2 -6 11 -24 12 -17 27 -31 33 -31 6 0 5 5 -2 12 -7 7 -12 19 -12 28 0 9 -7 25 -16 36 -15 18 -15 18 -8 -5z"/>
<path d="M804 837 c-7 -9 -3 -18 18 -35 15 -13 28 -19 28 -13 0 6 -9 16 -19 23 -10 6 -17 18 -14 25 6 16 1 16 -13 0z"/>
<path d="M630 810 c-60 -36 -90 -85 -90 -145 0 -41 5 -58 25 -79 32 -35 81 -36 97 -2 13 31 4 58 -17 50 -21 -9 -45 14 -45 42 0 23 48 64 76 64 7 0 31 -18 54 -41 47 -46 48 -65 10 -144 -27 -56 -73 -79 -145 -73 -50 4 -61 10 -100 48 -24 23 -46 54 -50 69 -6 25 -7 26 -21 6 -27 -37 -8 -215 23 -215 4 0 22 -13 38 -29 45 -41 68 -51 122 -51 152 0 283 94 283 204 0 20 3 35 8 33 4 -3 6 27 5 65 -2 83 -24 142 -62 162 -14 7 -41 21 -60 31 -53 28 -110 29 -151 5z"/>
<path d="M947 643 c-11 -20 -16 -63 -8 -63 5 0 11 16 13 35 4 35 3 42 -5 28z"/>
<path d="M960 524 c0 -16 5 -36 11 -44 7 -11 8 -4 3 25 -8 50 -14 58 -14 19z"/>
</g>
<g id="layer107" fill="#a62ba2" stroke="none">
<path d="M650 819 c-32 -13 -78 -56 -96 -91 -23 -44 -18 -111 11 -142 30 -32 79 -36 95 -7 17 33 12 49 -16 53 -59 7 -58 78 1 98 40 13 61 5 99 -41 31 -36 31 -35 10 -105 -24 -83 -104 -127 -187 -102 -36 11 -127 95 -127 118 0 5 -4 10 -9 10 -12 0 -19 -128 -9 -166 8 -31 74 -100 115 -122 53 -29 194 -5 263 43 64 44 87 93 97 208 11 123 -4 168 -70 207 -82 49 -127 59 -177 39z"/>
<path d="M942 610 c0 -19 2 -27 5 -17 2 9 2 25 0 35 -3 9 -5 1 -5 -18z"/>
</g>
<g id="layer108" fill="#ad6370" stroke="none">
<path d="M650 819 c-32 -13 -78 -56 -96 -91 -23 -44 -18 -111 11 -142 30 -32 79 -36 95 -7 17 33 12 49 -16 53 -63 7 -58 76 7 101 l41 16 25 -29 c14 -17 28 -28 33 -25 9 5 20 -18 20 -42 0 -8 -7 -39 -16 -69 -24 -83 -104 -127 -187 -102 -36 11 -127 95 -127 118 0 5 -4 10 -9 10 -12 0 -19 -128 -9 -167 11 -41 78 -100 120 -107 18 -3 49 -8 69 -11 27 -4 42 0 61 15 21 16 31 18 59 10 30 -9 36 -7 64 20 17 17 36 30 41 30 6 0 19 16 30 36 14 28 16 38 7 41 -14 5 -16 66 -4 97 7 19 8 18 14 -4 10 -38 16 -20 18 50 2 83 -19 127 -74 160 -81 48 -127 58 -177 39z m56 -415 c1 -38 0 -38 -27 -24 -21 12 -25 50 -8 67 17 17 34 -4 35 -43z"/>
</g>
<g id="layer109" fill="#a6b93e" stroke="none">
<path d="M452 1083 c4 -43 10 -61 28 -75 13 -10 25 -16 28 -14 5 5 -49 146 -56 146 -2 0 -2 -25 0 -57z"/>
<path d="M640 813 c-24 -9 -70 -55 -86 -85 -8 -15 -14 -47 -14 -71 0 -77 71 -126 113 -77 9 11 17 28 16 38 0 14 -2 14 -9 -3 -7 -16 -9 -16 -9 -4 -1 9 -12 20 -26 23 -19 5 -25 13 -25 34 0 37 17 57 59 71 27 9 36 8 43 -1 6 -10 8 -10 8 -1 0 7 12 0 27 -15 15 -15 27 -30 25 -34 -1 -5 2 -8 7 -8 4 0 7 -12 4 -27 -3 -24 -2 -25 6 -8 5 11 10 16 10 11 1 -5 -12 -37 -29 -72 -46 -97 -116 -134 -197 -103 -33 12 -123 97 -123 116 0 7 -4 13 -10 13 -14 0 -13 -27 1 -36 8 -5 10 -31 6 -85 -6 -77 -6 -78 24 -103 17 -14 43 -29 57 -32 15 -3 49 -12 76 -20 46 -15 51 -14 77 5 22 16 33 18 59 11 30 -9 37 -6 86 37 57 49 75 80 54 93 -9 6 -11 22 -6 56 4 27 8 57 9 67 1 9 7 17 14 17 17 0 16 15 -2 78 -13 43 -24 57 -63 84 -38 26 -58 33 -107 35 -33 1 -67 0 -75 -4z m25 -23 c-3 -5 -13 -10 -21 -10 -8 0 -12 5 -9 10 3 6 13 10 21 10 8 0 12 -4 9 -10z m-63 -348 c-26 -20 -20 -32 14 -32 26 0 40 -15 23 -26 -8 -4 -9 -3 -5 4 5 8 0 12 -12 12 -11 0 -32 6 -46 14 l-26 13 22 16 c33 23 59 22 30 -1z m104 -38 c1 -38 0 -38 -27 -24 -21 12 -25 50 -8 67 17 17 34 -4 35 -43z"/>
<path d="M650 702 c0 -5 18 -18 40 -31 45 -25 54 -13 14 18 -27 21 -54 28 -54 13z"/>
<path d="M385 667 c-11 -17 -19 -53 -21 -95 -3 -58 -2 -62 6 -29 5 20 19 55 30 77 14 28 18 46 12 57 -8 14 -12 13 -27 -10z"/>
<path d="M916 461 c-8 -12 25 -38 59 -47 l30 -7 -29 32 c-30 31 -50 39 -60 22z"/>
</g>
<g id="layer110" fill="#c64db0" stroke="none">
<path d="M629 805 c-41 -22 -81 -82 -87 -130 -6 -58 25 -105 69 -105 35 0 59 20 58 47 0 16 -1 16 -9 -2 -8 -18 -9 -18 -9 -2 -1 10 -5 16 -11 12 -17 -11 -48 31 -43 59 6 30 16 39 62 55 27 9 36 9 43 -1 6 -10 8 -10 8 -1 0 7 12 0 27 -15 15 -15 27 -30 25 -34 -1 -5 2 -8 7 -8 4 0 7 -12 4 -27 -3 -24 -2 -25 6 -8 5 11 10 16 10 11 1 -5 -12 -37 -29 -72 -47 -99 -112 -132 -201 -103 -38 13 -119 92 -119 117 0 12 -3 13 -12 4 -8 -8 -8 -15 2 -27 9 -11 11 -36 7 -90 -7 -73 -6 -74 24 -99 17 -14 43 -29 57 -32 15 -3 49 -12 76 -20 46 -15 51 -14 77 5 22 16 33 18 59 11 30 -9 37 -6 86 37 57 49 75 80 54 93 -12 7 -12 19 2 115 2 11 9 26 16 33 17 19 -8 119 -27 108 -5 -4 -11 -2 -13 3 -1 5 -27 25 -57 45 -59 40 -114 47 -162 21z m36 -15 c-3 -5 -13 -10 -21 -10 -8 0 -12 5 -9 10 3 6 13 10 21 10 8 0 12 -4 9 -10z m-63 -348 c-26 -20 -20 -32 14 -32 26 0 40 -15 23 -26 -8 -4 -9 -3 -5 4 5 8 0 12 -12 12 -11 0 -32 6 -46 14 l-26 13 22 16 c33 23 59 22 30 -1z m104 -38 c1 -38 0 -38 -27 -24 -21 12 -25 50 -8 67 17 17 34 -4 35 -43z"/>
</g>
<g id="layer111" fill="#d0a361" stroke="none">
<path d="M629 805 c-106 -58 -117 -235 -14 -235 18 0 35 6 38 13 6 18 -4 48 -14 42 -4 -3 -17 3 -28 14 -25 25 -15 71 18 87 12 6 22 15 21 20 0 5 11 10 24 12 18 2 35 -7 60 -31 59 -60 61 -69 27 -142 -17 -35 -35 -66 -41 -70 -15 -10 -12 -35 5 -35 14 0 14 -3 0 -30 -19 -37 -19 -59 1 -67 24 -9 61 13 78 46 20 37 12 59 -21 63 l-25 3 22 28 c16 20 27 26 45 21 20 -5 25 0 35 32 7 21 19 45 27 52 8 8 11 23 7 40 -12 50 -24 73 -33 68 -5 -4 -11 -2 -13 3 -1 5 -27 25 -57 45 -59 40 -114 47 -162 21z m36 -15 c-3 -5 -13 -10 -21 -10 -8 0 -12 5 -9 10 3 6 13 10 21 10 8 0 12 -4 9 -10z"/>
<path d="M425 600 c-4 -6 -1 -18 6 -26 8 -10 10 -36 6 -88 -6 -67 -5 -75 16 -93 12 -11 31 -25 42 -31 28 -13 154 -34 165 -27 18 11 10 35 -11 35 -15 0 -19 5 -15 15 3 10 -1 15 -12 15 -25 0 -102 38 -102 50 0 6 11 5 25 -2 19 -9 28 -9 37 0 7 7 21 12 33 13 11 0 -4 7 -34 15 -57 15 -108 56 -134 107 -9 18 -18 24 -22 17z"/>
</g>
<g id="layer112" fill="#cddb55" stroke="none">
<path d="M710 773 c0 -16 58 -66 68 -59 6 3 20 -2 32 -12 25 -20 29 -68 11 -115 -12 -31 -7 -47 14 -47 19 0 32 47 29 112 -3 72 -9 89 -41 112 -14 11 -23 13 -18 6 6 -10 4 -11 -11 -5 -30 13 -84 18 -84 8z"/>
<path d="M596 735 c-14 -21 -14 -25 -2 -25 7 0 16 7 20 15 3 9 12 12 23 8 17 -6 17 -6 1 10 -21 22 -23 22 -42 -8z"/>
<path d="M547 703 c-14 -14 -6 -76 14 -104 14 -21 29 -29 50 -29 38 0 38 25 0 44 -31 16 -41 34 -41 72 0 23 -10 31 -23 17z"/>
<path d="M448 491 c-4 -80 10 -113 53 -126 30 -10 43 5 20 22 -12 8 -21 20 -21 28 0 8 -10 30 -21 50 -23 38 -20 56 5 35 33 -27 35 -2 2 31 l-35 36 -3 -76z"/>
</g>
<g id="layer113" fill="#eec0d1" stroke="none">
<path d="M829 613 c-16 -43 -15 -67 3 -71 11 -2 20 8 27 31 19 57 -9 94 -30 40z"/>
<path d="M725 451 c-10 -22 -15 -47 -12 -55 13 -33 68 -12 92 34 20 39 10 60 -30 60 -28 0 -34 -5 -50 -39z"/>
<path d="M604 359 c-3 -6 0 -15 7 -20 21 -14 53 -6 57 14 3 13 -3 17 -27 17 -16 0 -33 -5 -37 -11z"/>
</g>


</svg>