<?xml version="1.0" encoding="UTF-8"?>
<!DOCTYPE svg PUBLIC "-//W3C//DTD SVG 1.0//EN" "http://www.w3.org/TR/2001/REC-SVG-20010904/DTD/svg10.dtd">
<!-- Creator: CorelDRAW X7 -->
<svg xmlns="http://www.w3.org/2000/svg" xml:space="preserve" width="297mm" height="210mm" version="1.0" shape-rendering="geometricPrecision" text-rendering="geometricPrecision" image-rendering="optimizeQuality" fill-rule="evenodd" clip-rule="evenodd" viewBox="0 0 29700 21000" xmlns:xlink="http://www.w3.org/1999/xlink">
 <g id="Warstwa_x0020_1">
  <metadata id="CorelCorpID_0Corel-Layer"/>
  <g>
   <path id="path6238" fill="black" d="M6661 10984l0 -1051 0 0c-92,3 -171,8 -235,14 -113,13 -205,34 -277,64l62 -190 61 -190 0 0 615 0 0 0 721 0 0 0 -50 184 -51 184c-44,-18 -119,-35 -225,-48 -57,-8 -113,-14 -169,-16l0 0 0 1049c0,73 5,136 15,190 10,54 27,111 52,170l-292 0 -293 0c24,-59 42,-116 52,-170 10,-54 14,-117 14,-190l0 0zm1007 0l0 -924c0,-82 -4,-150 -13,-204 -8,-54 -22,-106 -44,-156l269 -30 268 -30c-25,49 -43,112 -53,188 -10,75 -15,181 -15,316l0 229 0 0 0 0 218 -228c35,-11 67,-16 98,-15 115,0 204,31 265,92 61,61 92,150 92,265l0 497c0,81 4,149 12,203 9,54 24,106 45,157l-263 0 -263 0c22,-51 36,-103 44,-157 9,-54 13,-122 13,-203l0 -369c0,-55 -9,-96 -29,-125 -19,-29 -47,-44 -83,-44 -58,1 -108,19 -149,54l0 0 0 484c0,81 4,149 12,203 9,54 24,106 45,157l-263 0 -263 0c22,-51 37,-103 45,-157 8,-54 12,-122 12,-203l0 0zm1886 385c-202,0 -362,-55 -478,-165 -117,-110 -175,-261 -175,-453 0,-183 51,-332 155,-447 104,-116 237,-174 400,-174l-4 0c157,0 280,49 368,148 88,98 132,235 132,410 0,48 -4,93 -13,136l0 0 -627 0 0 0c15,62 38,115 71,158 59,75 145,113 259,113 52,0 106,-8 160,-26 56,-17 106,-42 150,-73l-144 348c-67,10 -117,17 -149,20 -32,3 -67,5 -105,5l0 0zm43 -776l0 0 -1 -40c0,-57 -13,-101 -39,-132 -25,-30 -60,-46 -106,-46 -51,0 -90,24 -117,70 -20,35 -33,85 -37,148l0 0 300 0 0 0zm1837 391c0,79 5,145 13,199 10,54 26,108 47,161l-286 0 -288 0c22,-53 37,-107 46,-161 9,-54 14,-120 14,-199l0 -1101 -214 -252 325 0 325 0c1,38 5,69 13,93 7,23 19,45 35,65l428 540 0 0 0 0 432 -540c23,-28 39,-54 48,-77 10,-24 16,-51 18,-81l254 0 255 0c-49,117 -84,220 -103,306 -20,87 -30,176 -30,270l0 777c0,79 5,145 13,199 10,54 25,108 47,161l-285 0 -287 0c22,-53 37,-107 46,-161 9,-54 14,-120 14,-199l0 -631 0 0 -440 563 0 0 -440 -573 0 0 0 641 0 0zm1883 385c-106,0 -193,-30 -261,-89 -67,-59 -100,-136 -100,-229 0,-90 32,-169 96,-238 65,-70 157,-124 277,-163l215 -70 0 0c-1,-53 -18,-93 -50,-123 -31,-30 -78,-45 -139,-45 -56,0 -103,4 -139,11 -36,8 -80,22 -131,43l76 -281c73,-22 132,-37 180,-44 47,-7 107,-11 179,-11 134,0 240,36 318,108 78,73 118,170 118,293l0 453c0,81 4,149 12,203 9,54 24,106 45,157l-230 0 -230 0 0 0 0 -127 0 0 -194 151 -42 1 0 0zm227 -294l0 -220 0 0 -178 0c-11,0 -23,12 -35,38 -12,25 -19,48 -19,69 0,43 12,75 34,96 24,21 58,32 104,32 37,-1 69,-6 94,-15l0 0 0 0zm607 -91l0 -469c0,-81 -5,-149 -13,-203 -9,-54 -23,-106 -44,-157l234 0 234 0 0 0 0 228 0 0 0 0 219 -237c29,-10 61,-16 99,-16 114,0 202,31 263,92 62,61 92,149 92,264l0 498c0,81 4,149 12,203 9,54 24,106 45,157l-263 0 -262 0c21,-51 36,-103 44,-157 8,-54 13,-122 13,-203l0 -363c0,-56 -12,-99 -35,-129 -23,-30 -56,-46 -100,-46 -48,0 -90,13 -127,38l0 0 0 500c0,81 4,149 12,203 9,54 24,106 45,157l-263 0 -262 0c21,-51 36,-103 45,-157 8,-54 12,-122 12,-203l0 0zm1556 385c-106,0 -193,-30 -261,-89 -67,-59 -100,-136 -100,-229 0,-90 32,-169 96,-238 65,-70 157,-124 277,-163l216 -70 0 0c-2,-53 -19,-93 -51,-123 -31,-30 -77,-45 -139,-45 -56,0 -102,4 -139,11 -36,8 -80,22 -131,43l77 -281c72,-22 132,-37 179,-44 47,-7 107,-11 180,-11 133,0 239,36 317,108 79,73 118,170 118,293l0 453c0,81 4,149 12,203 9,54 24,106 45,157l-230 0 -230 0 0 0 0 -127 0 0 -193 151 -43 1 0 0zm228 -294l0 -220 0 0 -179 0c-11,0 -22,12 -35,38 -12,25 -18,48 -18,69 0,43 11,75 33,96 24,21 58,32 104,32 38,-1 69,-6 95,-15l0 0 0 0zm1767 269l-360 -1353c-23,-83 -44,-152 -66,-206 -21,-54 -46,-105 -74,-154l288 0 289 0c-8,55 -11,104 -10,146 1,41 6,85 16,131l145 683 0 0 0 0 192 -712c11,-40 22,-85 31,-133 9,-48 16,-87 19,-115l158 0 160 0c4,36 10,78 18,126 8,48 17,89 27,122l190 744 0 0 0 0 169 -794c7,-32 10,-63 9,-92 -2,-30 -8,-65 -18,-106l277 0 277 0c-29,50 -54,101 -76,155 -21,54 -43,123 -65,205l-360 1353 -176 0 -178 0 -270 -876 0 0 0 0 -258 876 -177 0 -177 0 0 0zm2324 25c-176,0 -320,-53 -433,-159 -112,-106 -168,-243 -168,-410 0,-196 61,-357 185,-482 123,-125 281,-188 475,-188 176,0 320,53 432,160 112,106 169,244 169,411 0,196 -62,356 -185,481 -123,125 -281,187 -475,187l0 0 0 0zm112 -239c38,-35 68,-81 91,-140 24,-59 36,-117 36,-175 0,-107 -31,-202 -93,-285 -62,-84 -142,-138 -239,-161 -29,27 -52,70 -70,129 -18,59 -27,122 -27,188 0,110 28,206 85,289 56,82 129,134 217,155l0 0 0 0zm696 -146l0 -469c0,-81 -4,-149 -13,-203 -8,-54 -22,-106 -44,-157l235 0 234 0 0 0 0 220 0 0 0 0 212 -225c36,-13 68,-20 95,-20 22,0 39,1 54,3 15,2 35,5 60,10l-59 339c-28,-13 -51,-23 -69,-28 -18,-5 -38,-8 -61,-8 -58,0 -118,27 -180,79l-52 51 0 0 0 408c0,81 4,149 12,203 9,54 24,106 45,157l-263 0 -263 0c22,-51 37,-103 45,-157 8,-54 12,-122 12,-203l0 0zm923 0l0 -924c0,-82 -4,-150 -13,-204 -8,-54 -23,-106 -44,-156l268 -30 268 -30c-24,49 -42,111 -52,187 -10,76 -16,182 -16,317l0 840c0,81 5,149 13,203 8,54 23,106 44,157l-262 0 -263 0c21,-51 36,-103 45,-157 8,-54 12,-122 12,-203l0 0zm1127 385c-160,0 -292,-49 -394,-146 -101,-97 -152,-222 -152,-375 0,-201 66,-371 197,-510 132,-139 293,-208 484,-208 17,-1 35,0 52,2l0 0 0 -72c0,-82 -4,-150 -13,-204 -8,-54 -22,-106 -44,-156l269 -30 268 -30c-25,49 -43,112 -53,188 -10,75 -15,181 -15,316l0 840c0,82 4,150 12,204 9,54 24,106 45,156l-230 0 -230 0 0 0 0 -133 0 0 -152 157 -44 1 0 0zm59 -997c-55,0 -101,34 -136,102 -35,67 -53,154 -53,260 0,121 16,211 48,272 32,59 80,89 145,89 49,0 90,-22 124,-63l0 0 0 -635 0 0c-35,-17 -77,-25 -128,-25z"/>
  </g>
 </g>
</svg>