<?xml version="1.0" encoding="UTF-8" standalone="no"?>
<svg
   xmlns:dc="http://purl.org/dc/elements/1.1/"
   xmlns:cc="http://creativecommons.org/ns#"
   xmlns:rdf="http://www.w3.org/1999/02/22-rdf-syntax-ns#"
   xmlns:svg="http://www.w3.org/2000/svg"
   xmlns="http://www.w3.org/2000/svg"
   xmlns:xlink="http://www.w3.org/1999/xlink"
   xmlns:sodipodi="http://sodipodi.sourceforge.net/DTD/sodipodi-0.dtd"
   xmlns:inkscape="http://www.inkscape.org/namespaces/inkscape"
   width="210mm"
   height="297mm"
   viewBox="0 0 210 297"
   version="1.1"
   id="svg8"
   sodipodi:docname="Manaverse5.svg"
   inkscape:version="1.0.1 (3bc2e813f5, 2020-09-07)">
  <defs
     id="defs2">
    <inkscape:path-effect
       effect="powerstroke"
       id="path-effect1058"
       is_visible="true"
       lpeversion="1"
       offset_points="0.20196527,-3.4431028"
       sort_points="true"
       interpolator_type="CubicBezierJohan"
       interpolator_beta="0.2"
       start_linecap_type="zerowidth"
       linejoin_type="extrp_arc"
       miter_limit="4"
       scale_width="1"
       end_linecap_type="zerowidth" />
    <inkscape:path-effect
       effect="powerstroke"
       id="path-effect949"
       is_visible="true"
       lpeversion="1"
       offset_points="0.5816306,3.8262755"
       sort_points="true"
       interpolator_type="CubicBezierJohan"
       interpolator_beta="0.2"
       start_linecap_type="zerowidth"
       linejoin_type="extrp_arc"
       miter_limit="4"
       scale_width="1"
       end_linecap_type="zerowidth" />
    <inkscape:path-effect
       effect="powerstroke"
       id="path-effect945"
       is_visible="true"
       lpeversion="1"
       offset_points="0.11297162,-4.2373807"
       sort_points="true"
       interpolator_type="CubicBezierJohan"
       interpolator_beta="0.2"
       start_linecap_type="zerowidth"
       linejoin_type="extrp_arc"
       miter_limit="4"
       scale_width="1"
       end_linecap_type="zerowidth" />
    <linearGradient
       inkscape:collect="always"
       id="linearGradient937">
      <stop
         style="stop-color:#4875e6;stop-opacity:1;"
         offset="0"
         id="stop933" />
      <stop
         style="stop-color:#ff5050;stop-opacity:1"
         offset="1"
         id="stop935" />
    </linearGradient>
    <inkscape:path-effect
       effect="powerstroke"
       id="path-effect931"
       is_visible="true"
       lpeversion="1"
       offset_points="3.0798793,4.1913499"
       sort_points="true"
       interpolator_type="CubicBezierJohan"
       interpolator_beta="0.2"
       start_linecap_type="zerowidth"
       linejoin_type="extrp_arc"
       miter_limit="4"
       scale_width="1"
       end_linecap_type="zerowidth" />
    <inkscape:path-effect
       effect="powerstroke"
       id="path-effect912"
       is_visible="true"
       lpeversion="1"
       offset_points="2.9218323,4.1913499"
       sort_points="true"
       interpolator_type="CubicBezierJohan"
       interpolator_beta="0.2"
       start_linecap_type="zerowidth"
       linejoin_type="extrp_arc"
       miter_limit="4"
       scale_width="1"
       end_linecap_type="zerowidth" />
    <linearGradient
       inkscape:collect="always"
       id="linearGradient873">
      <stop
         style="stop-color:#ffe060;stop-opacity:1"
         offset="0"
         id="stop869" />
      <stop
         style="stop-color:#f2fc00;stop-opacity:0.44606414"
         offset="1"
         id="stop871" />
    </linearGradient>
    <inkscape:path-effect
       effect="powerstroke"
       id="path-effect867"
       is_visible="true"
       lpeversion="1"
       offset_points="2.9218323,4.1913499"
       sort_points="true"
       interpolator_type="CubicBezierJohan"
       interpolator_beta="0.2"
       start_linecap_type="zerowidth"
       linejoin_type="extrp_arc"
       miter_limit="4"
       scale_width="1"
       end_linecap_type="zerowidth" />
    <inkscape:path-effect
       effect="powerstroke"
       id="path-effect863"
       is_visible="true"
       lpeversion="1"
       offset_points="0,5.72807"
       sort_points="true"
       interpolator_type="CubicBezierJohan"
       interpolator_beta="0.2"
       start_linecap_type="zerowidth"
       linejoin_type="extrp_arc"
       miter_limit="4"
       scale_width="1"
       end_linecap_type="zerowidth" />
    <inkscape:path-effect
       effect="powerstroke"
       id="path-effect859"
       is_visible="true"
       lpeversion="1"
       offset_points="0,5.72807"
       sort_points="true"
       interpolator_type="CubicBezierJohan"
       interpolator_beta="0.2"
       start_linecap_type="zerowidth"
       linejoin_type="extrp_arc"
       miter_limit="4"
       scale_width="1"
       end_linecap_type="zerowidth" />
    <inkscape:path-effect
       effect="powerstroke"
       id="path-effect855"
       is_visible="true"
       lpeversion="1"
       offset_points="0,5.72807"
       sort_points="true"
       interpolator_type="CubicBezierJohan"
       interpolator_beta="0.2"
       start_linecap_type="zerowidth"
       linejoin_type="extrp_arc"
       miter_limit="4"
       scale_width="1"
       end_linecap_type="zerowidth" />
    <inkscape:path-effect
       effect="powerstroke"
       id="path-effect851"
       is_visible="true"
       lpeversion="1"
       offset_points="0,5.72807"
       sort_points="true"
       interpolator_type="CubicBezierJohan"
       interpolator_beta="0.2"
       start_linecap_type="zerowidth"
       linejoin_type="extrp_arc"
       miter_limit="4"
       scale_width="1"
       end_linecap_type="zerowidth" />
    <inkscape:path-effect
       effect="powerstroke"
       id="path-effect843"
       is_visible="true"
       lpeversion="1"
       offset_points="0,5.72807"
       sort_points="true"
       interpolator_type="CubicBezierJohan"
       interpolator_beta="0.2"
       start_linecap_type="zerowidth"
       linejoin_type="extrp_arc"
       miter_limit="4"
       scale_width="1"
       end_linecap_type="zerowidth" />
    <rect
       x="39.22995"
       y="73.844612"
       width="161.53509"
       height="173.07331"
       id="rect835" />
    <linearGradient
       inkscape:collect="always"
       xlink:href="#linearGradient873"
       id="linearGradient879"
       x1="101.59774"
       y1="108.00024"
       x2="104.38918"
       y2="32.132378"
       gradientUnits="userSpaceOnUse" />
    <radialGradient
       inkscape:collect="always"
       xlink:href="#linearGradient937"
       id="radialGradient941"
       cx="31.691263"
       cy="117.97118"
       fx="31.691263"
       fy="117.97118"
       r="31.9278"
       gradientTransform="matrix(1.0387585,-0.82901661,0.61188551,0.766693,-42.940851,62.194515)"
       gradientUnits="userSpaceOnUse" />
  </defs>
  <sodipodi:namedview
     id="base"
     pagecolor="#ffffff"
     bordercolor="#666666"
     borderopacity="1.0"
     inkscape:pageopacity="0.0"
     inkscape:pageshadow="2"
     inkscape:zoom="1"
     inkscape:cx="501.81633"
     inkscape:cy="495.11635"
     inkscape:document-units="mm"
     inkscape:current-layer="layer1"
     inkscape:document-rotation="0"
     showgrid="false"
     inkscape:window-width="1920"
     inkscape:window-height="1017"
     inkscape:window-x="-8"
     inkscape:window-y="-8"
     inkscape:window-maximized="1" />
  <metadata
     id="metadata5">
    <rdf:RDF>
      <cc:Work
         rdf:about="">
        <dc:format>image/svg+xml</dc:format>
        <dc:type
           rdf:resource="http://purl.org/dc/dcmitype/StillImage" />
        <dc:title></dc:title>
      </cc:Work>
    </rdf:RDF>
  </metadata>
  <g
     inkscape:label="Layer 1"
     inkscape:groupmode="layer"
     id="layer1">
    <path
       style="fill:#c93a61;fill-opacity:1;fill-rule:nonzero;stroke:none;stroke-width:0.264583px;stroke-linecap:butt;stroke-linejoin:miter;stroke-opacity:1"
       d="m 109.39614,85.703969 c 1.07937,0.736035 3.71527,1.618707 6.35093,2.87465 2.68369,1.278828 5.19627,2.807844 6.18153,3.964476 0.69461,0.815424 1.42177,1.718754 2.16951,2.712291 2.98842,3.970796 6.17635,9.222954 8.77857,15.496814 2.05219,4.94774 3.64734,10.33475 4.30989,15.49467 0.30505,2.37569 0.40971,4.69176 0.26353,6.85313 -0.14225,2.10318 -0.52346,4.07787 -1.20075,5.8108 -0.59331,1.48028 -1.40232,2.66094 -2.39622,3.52969 -0.99921,0.8734 -2.1209,1.37545 -3.26625,1.59605 -1.15234,0.22195 -2.31374,0.15741 -3.41134,-0.0685 -1.13493,-0.23355 -2.24375,-0.6481 -3.27294,-1.15097 -2.26253,-1.10549 -4.23247,-2.67514 -5.63935,-4.10287 -0.83859,-0.85101 -1.49259,-1.66344 -1.98193,-2.38608 -0.61171,-0.90334 -0.95424,-1.64611 -1.15207,-2.22427 0.19849,0.58009 0.60243,1.2946 1.29949,2.11215 0.55704,0.65333 1.29734,1.36538 2.21236,2.073 1.55147,1.19983 3.63105,2.39955 5.84192,3.05884 1.00382,0.29935 2.00504,0.47675 2.94631,0.48939 0.91457,0.0123 1.72873,-0.13156 2.41519,-0.42994 0.66615,-0.28955 1.20381,-0.71981 1.63366,-1.29838 0.42863,-0.57693 0.7946,-1.36176 1.04323,-2.42883 0.33222,-1.32707 0.47097,-2.90062 0.4129,-4.67881 -0.0595,-1.82257 -0.32429,-3.81632 -0.76961,-5.91205 -0.97054,-4.56753 -2.73962,-9.36808 -4.89516,-13.83027 -2.73028,-5.65198 -5.83596,-10.29202 -8.60882,-13.833998 -0.69142,-0.883194 -1.3529,-1.687069 -1.97423,-2.416474 -0.84599,-0.993133 -1.93516,-3.497055 -3.27111,-5.896492 -1.36823,-2.457413 -2.87697,-4.62913 -4.01924,-5.408057 z"
       id="path943-3"
       inkscape:path-effect="#path-effect1058"
       inkscape:original-d="m 109.39614,85.703969 c 17.81448,12.147887 28.99437,40.459291 24.98924,52.591491 -3.37501,10.22347 -17.38647,1.27248 -19.25613,-4.19157"
       sodipodi:nodetypes="csc" />
    <path
       style="fill:#c93a61;fill-opacity:1;fill-rule:nonzero;stroke:none;stroke-width:0.264583px;stroke-linecap:butt;stroke-linejoin:miter;stroke-opacity:1"
       d="m 72.886955,98.280716 c 0.223147,0.16736 0.272364,1.086196 0.574172,2.112954 0.259614,0.88322 0.644181,1.82681 0.946657,2.35097 0.143025,0.24784 0.272236,0.40897 0.385589,0.43997 0.262459,0.0718 0.5573,0.11306 0.847372,0.12947 0.334177,0.0189 0.653165,0.005 0.91447,-0.0343 -0.0076,0.001 -0.01529,0.002 -0.02294,0.003 0.05188,0.0178 0.103696,0.0358 0.15544,0.054 2.402917,0.84454 4.811783,2.16944 7.169978,4.0421 2.177149,1.72888 4.228319,3.86023 6.097049,6.32761 3.621707,4.78193 6.256113,10.43219 7.671505,15.6527 0.705192,2.60103 1.153157,5.26504 1.337441,7.95365 0.25041,-2.62914 0.768048,-5.22593 1.544899,-7.75013 1.05806,-3.43796 2.59157,-6.72187 4.2407,-9.79047 1.70741,-3.17705 3.6797,-6.36656 5.24925,-8.98076 1.8879,-3.14443 3.30556,-5.63692 4.32322,-7.99257 0.57705,-1.33572 0.97117,-2.51002 1.21797,-3.576351 0.29719,-1.283997 0.36689,-2.354768 0.31072,-3.275703 0.0563,0.922631 -0.058,1.99155 -0.43044,3.244097 -0.30886,1.038687 -0.78436,2.169517 -1.45524,3.436797 -1.17887,2.22689 -2.79351,4.57997 -4.92521,7.53125 -1.76557,2.44438 -4.03723,5.50169 -6.04497,8.56894 -1.14601,1.75076 -2.28421,3.61763 -3.324061,5.58763 -1.134349,-4.46856 -3.007517,-9.13013 -5.599296,-13.39165 -1.796658,-2.95414 -3.90298,-5.65802 -6.295506,-7.97246 -2.598052,-2.51327 -5.459374,-4.49614 -8.532033,-5.884185 l 0.132502,0.05734 c -0.601318,-0.429927 -1.197139,-0.74918 -1.620989,-0.950618 -0.381028,-0.181086 -0.703266,-0.305651 -0.942868,-0.371187 -0.107369,-0.02937 -0.27944,0.04931 -0.486101,0.197814 -0.441747,0.31744 -1.032976,0.957853 -1.655952,1.476885 -0.722531,0.601975 -1.560184,0.970183 -1.783331,0.802823 z"
       id="path947"
       inkscape:path-effect="#path-effect949"
       inkscape:original-d="m 72.886955,98.280716 c 1.448679,1.086509 3.471887,1.185209 5.078751,1.921694 11.532793,4.70173 18.883183,17.9823 21.130349,28.85334 4.945185,-13.76844 17.264675,-24.7424 16.754395,-33.108514"
       sodipodi:nodetypes="cccc" />
    <path
       style="fill:#c93a61;fill-opacity:1;fill-rule:nonzero;stroke:none;stroke-width:0.264583px;stroke-linecap:butt;stroke-linejoin:miter;stroke-opacity:1"
       d="m 68.184906,96.567063 c 0.769867,0.411532 2.937178,0.25611 5.052685,0.65455 1.802444,0.339477 3.429244,1.009081 3.925641,1.71631 0.175881,0.250581 0.351144,0.516401 0.524042,0.797674 1.410164,2.294083 2.491974,5.328303 2.794988,9.198783 0.23303,2.97655 -0.0093,6.22975 -0.702742,9.74642 -0.62678,3.1787 -1.601778,6.46923 -2.828936,9.79555 -2.440388,6.61489 -5.738044,12.99344 -8.668887,18.10391 -1.638962,2.85783 -3.164792,5.32234 -4.373616,7.23592 -1.6637,2.63365 -2.681007,4.16264 -3.322265,5.30079 0.570248,-1.01211 1.494819,-2.92759 2.691559,-5.63703 0.901459,-2.04092 2.046934,-4.74129 3.217183,-7.75421 2.118648,-5.45467 4.375432,-12.07121 5.738806,-18.61421 0.685005,-3.28743 1.107484,-6.37684 1.235536,-9.22287 0.141737,-3.15024 -0.0883,-5.75456 -0.566137,-7.90519 -0.606154,-2.72817 -1.562093,-4.50433 -2.372477,-5.73126 -0.103348,-0.15647 -0.204944,-0.30485 -0.303682,-0.44552 -0.264464,-0.37679 -0.08557,-1.60521 -0.249461,-3.06155 -0.201644,-1.791866 -0.926219,-3.715137 -1.792237,-4.178067 z"
       id="path943"
       inkscape:path-effect="#path-effect945"
       inkscape:original-d="m 68.184906,96.567063 c 20.862168,11.151867 -1.243624,51.269817 -7.59909,62.549907"
       sodipodi:nodetypes="cc" />
    <text
       xml:space="preserve"
       id="text833"
       style="font-style:normal;font-variant:normal;font-weight:normal;font-stretch:normal;font-size:50.8px;line-height:1.25;font-family:'Cinzel Decorative';-inkscape-font-specification:'Cinzel Decorative';white-space:pre;shape-inside:url(#rect835);display:none;fill:url(#radialGradient941);fill-opacity:1;stroke:none;"
       transform="translate(35.983546,12.836164)" />
    <path
       style="fill:#f35252;fill-opacity:1;fill-rule:nonzero;stroke:none;stroke-width:0.264583px;stroke-linecap:butt;stroke-linejoin:miter;stroke-opacity:1"
       d="m 115.12925,134.10389 c 0.13307,0.50982 0.35245,1.07119 0.67667,1.68012 0.29261,0.54957 0.66919,1.13497 1.13718,1.74547 0.83547,1.0899 1.96476,2.26087 3.36208,3.37796 1.24596,0.99611 2.71366,1.95421 4.30708,2.70648 1.46543,0.69185 3.06761,1.22286 4.6736,1.40453 0.768,0.0869 1.54548,0.0947 2.31257,-0.003 0.74799,-0.0957 1.48967,-0.29248 2.20359,-0.61862 0.69814,-0.31892 1.36675,-0.76045 1.98198,-1.34701 0.6025,-0.57442 1.14881,-1.28322 1.61968,-2.1418 0.91617,-1.67053 1.54206,-3.89892 1.75271,-6.80084 0.20466,-2.81956 0.0189,-6.29534 -0.68761,-10.55492 -1.37529,-8.2923 -3.6738,-14.35354 -6.48354,-18.94204 -2.75784,-4.50373 -5.89923,-7.414063 -8.83425,-9.639175 -1.43092,-1.084814 -2.81669,-2.008726 -3.97253,-2.81402 -1.19715,-0.834081 -2.11567,-1.519634 -2.79703,-2.203039 -0.33305,-0.334045 -0.58179,-0.641161 -0.76502,-0.931521 -0.18206,-0.288497 -0.29767,-0.557526 -0.37047,-0.822039 -0.0723,-0.262488 -0.11144,-0.554197 -0.11191,-0.892563 -4.9e-4,-0.345576 0.0396,-0.768093 0.14821,-1.288048 l -5.7098,-0.320664 c 0.016,2.883299 -0.0151,5.179835 -0.0982,7.050853 -0.0853,1.919586 -0.22368,3.346825 -0.40892,4.448979 -0.18955,1.12778 -0.42198,1.86919 -0.66125,2.398887 -0.23691,0.52449 -0.51427,0.91491 -0.83613,1.30498 -0.37085,0.44942 -0.81831,0.91775 -1.46649,1.60259 -0.68198,0.72056 -1.47525,1.56737 -2.37619,2.64421 -2.1789,2.60434 -4.415275,5.8859 -6.864155,10.42061 l 7.196155,-0.2928 c -1.19142,-1.88333 -2.31692,-3.53895 -3.36844,-4.99505 -2.079686,-2.87987 -4.566371,-5.93919 -7.406176,-8.74079 -3.323909,-3.279184 -7.161622,-6.238471 -11.493379,-8.191611 -3.75624,-1.693645 -7.802334,-2.59129 -12.086119,-2.350814 -3.920123,0.220062 -7.850013,1.381826 -11.792249,3.498256 -2.502077,1.343265 -4.836422,2.977873 -6.954351,4.869732 2.533998,-0.01814 5.06175,0.253748 7.533928,0.810357 1.950948,0.43926 3.655558,1.00814 5.139306,1.68882 1.454963,0.66747 2.700982,1.44392 3.764534,2.31669 2.083443,1.70972 3.541185,3.85151 4.462651,6.42442 0.925659,2.58462 1.290736,5.55537 1.209055,8.80304 -0.08285,3.29434 -0.622455,6.7693 -1.412257,10.23706 -1.752222,7.6496 -4.728903,15.24537 -6.824503,20.17001 -3.010364,7.07433 -4.243434,9.29979 -4.243434,9.29979 0,0 1.525684,-2.04122 5.103432,-8.89293 2.492688,-4.77373 6.035258,-12.18637 8.436029,-19.90907 1.087808,-3.48433 1.968837,-7.10715 2.371489,-10.66114 0.395502,-3.49088 0.338517,-6.98832 -0.484907,-10.28207 -0.833064,-3.33231 -2.444997,-6.42591 -5.088979,-9.04527 -1.333446,-1.32103 -2.899403,-2.491114 -4.701651,-3.49914 -1.833618,-1.025572 -3.895849,-1.874561 -6.183781,-2.547285 l 0.579575,5.68009 c 3.379958,-1.511011 6.44767,-2.104737 9.249544,-2.044735 3.040885,0.06512 5.885383,0.902909 8.59896,2.32749 3.181073,1.67 6.172992,4.14459 8.968671,7.06859 2.382241,2.49158 4.548673,5.23325 6.458691,7.87817 0.959626,1.32885 2.009141,2.84871 3.139441,4.58872 1.376128,2.11846 2.687082,4.27854 3.93102,6.47722 1.01597,-2.29089 2.1049,-4.54871 3.26514,-6.77001 2.21435,-4.23945 4.03895,-7.10964 5.73459,-9.45034 0.73969,-1.02108 1.2976,-1.73304 1.9637,-2.61378 0.55884,-0.73893 1.19027,-1.59227 1.72539,-2.50987 0.5382,-0.92289 0.99398,-1.92895 1.32646,-3.14156 0.31407,-1.14545 0.497,-2.3953 0.59082,-3.861316 0.0905,-1.413501 0.10084,-3.076503 0.0513,-5.10448 -0.0485,-1.985505 -0.15556,-4.364348 -0.31099,-7.275476 -0.16817,-3.149794 -0.3596,-6.298304 -0.57426,-9.445272 -2.89619,2.203812 -4.75434,5.505299 -5.13555,9.124609 -0.097,0.920604 -0.0922,1.80907 0.0292,2.659226 0.12131,0.849694 0.35584,1.641119 0.69959,2.376342 0.34082,0.728953 0.77308,1.368803 1.26435,1.937339 0.48566,0.562041 1.02567,1.050606 1.58588,1.48716 1.09034,0.849674 2.36901,1.584598 3.62411,2.287635 1.29208,0.723744 2.62411,1.448125 4.0262,2.339991 2.78083,1.768862 5.76247,4.155552 8.46465,8.061812 2.77928,4.0177 5.23643,9.60959 6.8317,17.62112 0.81731,4.10417 1.11728,7.39852 1.05178,10.02993 -0.0674,2.70755 -0.52,4.70716 -1.19581,6.17836 -0.34641,0.75411 -0.75392,1.37387 -1.20513,1.8805 -0.46067,0.51724 -0.97342,0.92389 -1.52589,1.23564 -0.5664,0.3196 -1.17881,0.5418 -1.82438,0.6783 -0.66332,0.14025 -1.35954,0.18955 -2.07254,0.16171 -1.49405,-0.0583 -3.04888,-0.45582 -4.5161,-1.045 -1.58973,-0.63836 -3.07782,-1.49942 -4.35551,-2.42325 -1.43107,-1.03473 -2.60075,-2.1475 -3.46962,-3.2006 -0.48667,-0.58985 -0.87977,-1.16127 -1.18466,-1.70231 -0.33791,-0.59963 -0.56539,-1.15797 -0.69855,-1.66813 z"
       id="path865-5-3"
       inkscape:path-effect="#path-effect931"
       inkscape:original-d="m 115.12925,134.10389 c 2.2602,8.6591 28.19188,22.72556 22.16797,-10.33859 -6.02391,-33.06414 -26.50957,-26.570876 -24.8561,-38.15154 0.67965,22.94128 -1.59707,12.536111 -11.89633,31.91397 C 86.963015,96.331588 73.440437,90.206318 59.263955,97.228603 c 17.134276,4.494847 17.445078,18.616497 13.62556,32.752467 -3.942444,14.59091 -12.303699,29.1359 -12.303699,29.1359"
       sodipodi:nodetypes="czcccsc" />
    <path
       style="display:inline;fill:#f8b342;fill-opacity:0.998542;fill-rule:nonzero;stroke:none;stroke-width:0.264583px;stroke-linecap:butt;stroke-linejoin:miter;stroke-opacity:1"
       d="m 118.37155,138.81299 c 0.0288,0.088 0.0777,0.18822 0.14963,0.30097 0.0677,0.10609 0.15572,0.22324 0.26604,0.35107 0.20446,0.2369 0.48612,0.5111 0.85124,0.81351 0.64535,0.53453 1.57457,1.17459 2.74349,1.79307 1.03982,0.55018 2.30174,1.09909 3.67939,1.49208 1.26767,0.36162 2.67907,0.60382 4.10306,0.55528 0.68199,-0.0232 1.37573,-0.11351 2.06241,-0.29469 0.66966,-0.17668 1.33544,-0.44051 1.97761,-0.81569 1.24715,-0.72864 2.38892,-1.8687 3.27257,-3.55933 0.8497,-1.62567 1.4524,-3.74414 1.69358,-6.46918 0.23459,-2.65061 0.12854,-5.88927 -0.43348,-9.83746 -1.09432,-7.69077 -2.97037,-13.51594 -5.33723,-18.17172 -2.33082,-4.5849 -5.05344,-7.872948 -7.72089,-10.658294 -1.3017,-1.359231 -2.62545,-2.633449 -3.7814,-3.786808 -1.19463,-1.191942 -2.24347,-2.286547 -3.15905,-3.422361 -0.91888,-1.139918 -1.66736,-2.278345 -2.25354,-3.513513 -0.59308,-1.249699 -1.03379,-2.628191 -1.29609,-4.231828 -0.49248,-3.010889 -0.23791,-6.096653 0.74133,-8.986129 -3.25516,2.057871 -5.63912,5.241748 -6.69737,8.944589 -0.3348,1.17149 -0.49326,2.24351 -0.57466,3.221178 -0.0803,0.964335 -0.0889,1.922447 -0.10549,2.63863 -0.0189,0.813477 -0.0481,1.426015 -0.13144,2.030593 -0.0838,0.607785 -0.21853,1.162157 -0.42319,1.730358 -0.22039,0.611873 -0.5421,1.293791 -1.01643,2.075237 -0.52989,0.872977 -1.23631,1.846991 -2.16405,2.947777 -1.54759,1.836242 -3.53061,3.811671 -5.804703,5.887403 -0.172014,0.157008 -0.349539,0.318088 -0.532788,0.483288 -2.36274,-3.189775 -4.905615,-6.019631 -7.656338,-8.184175 -1.65002,-1.2984 -3.376322,-2.357213 -5.193969,-3.116984 -1.707601,-0.713773 -3.446701,-1.143063 -5.2242,-1.287069 -1.684787,-0.136494 -3.332906,-0.01128 -4.95653,0.312146 -1.552876,0.309336 -3.063607,0.795797 -4.550924,1.389158 -2.831399,1.129579 -5.646383,2.675958 -8.573134,4.192339 -2.330373,1.207391 -4.682849,2.371633 -7.056225,3.492131 2.442732,0.326189 4.842889,0.91631 7.158381,1.760015 2.687059,0.979094 4.753052,2.114639 6.325656,3.406659 0.775001,0.63673 1.439262,1.31871 2.005071,2.05217 0.56446,0.73172 1.038391,1.52433 1.426998,2.38856 0.784783,1.7453 1.21829,3.77659 1.33936,6.14046 0.123567,2.41261 -0.08257,5.08798 -0.510357,7.99762 -1.296652,8.20034 -3.196839,14.69234 -5.14194,20.21713 -2.255408,6.40618 -5.658254,14.26001 -7.286132,18.02579 2.580319,-5.96907 5.524018,-11.73651 8.104337,-17.70558 2.32484,-5.38806 4.774603,-11.83785 6.663721,-20.08402 0.701422,-2.92474 1.219027,-5.7555 1.381619,-8.42539 0.159441,-2.61815 -0.01705,-5.14993 -0.735212,-7.549 -0.35827,-1.19683 -0.849285,-2.35366 -1.493244,-3.46474 -0.646193,-1.11494 -1.437306,-2.168074 -2.381412,-3.158141 -0.673724,-0.706522 -1.418844,-1.374178 -2.234777,-2.005073 1.095046,-0.425185 2.138738,-0.796829 3.180515,-1.105471 1.265771,-0.375004 2.405864,-0.615579 3.468475,-0.722853 1.098583,-0.110905 2.093238,-0.07691 3.030686,0.08838 0.981277,0.173025 1.943614,0.497889 2.920881,0.995561 1.052548,0.536009 2.150288,1.288336 3.29903,2.290179 2.747438,2.396104 5.543361,6.002094 8.398543,10.519324 0.825964,1.30677 1.620935,2.63288 2.384246,3.97721 1.283581,-0.98599 2.550326,-1.9937 3.799686,-3.0227 1.69131,-1.393 3.10297,-2.62095 4.29128,-3.70561 2.42949,-2.2176 4.73105,-4.57626 6.55531,-6.933721 1.10716,-1.430769 2.04209,-2.863098 2.7651,-4.306431 0.65964,-1.316829 1.12852,-2.61363 1.41031,-3.914417 0.26336,-1.215767 0.34469,-2.347451 0.31798,-3.422335 -0.0249,-1.000774 -0.14256,-1.910771 -0.25898,-2.71274 -0.11455,-0.789092 -0.22292,-1.446186 -0.28489,-2.122946 -0.0579,-0.632328 -0.0741,-1.278748 0.0109,-1.98624 l -5.95604,-0.04154 c 0.51827,2.145759 1.29278,4.013083 2.28053,5.684591 0.96692,1.636256 2.10752,3.033626 3.33913,4.300435 1.20871,1.243265 2.51772,2.373054 3.83313,3.472562 1.32518,1.107661 2.64529,2.175524 3.99374,3.372535 2.66496,2.365665 5.34736,5.158557 7.71207,9.187437 2.41883,4.12108 4.49053,9.51484 5.82898,16.93302 0.68322,3.78534 0.91562,6.83824 0.83162,9.29816 -0.0863,2.52654 -0.50627,4.42894 -1.11669,5.86167 -0.63006,1.47881 -1.47894,2.49547 -2.43834,3.18787 -0.49947,0.36046 -1.03622,0.63825 -1.5985,0.84563 -0.57761,0.21303 -1.18179,0.3516 -1.79834,0.42865 -1.29356,0.16166 -2.63175,0.0515 -3.88502,-0.20147 -1.35618,-0.27378 -2.62405,-0.71645 -3.6852,-1.18495 -1.19024,-0.5255 -2.15139,-1.09553 -2.8229,-1.58314 -0.37995,-0.2759 -0.67522,-0.53058 -0.89053,-0.75517 -0.11605,-0.12105 -0.20899,-0.23348 -0.28025,-0.33664 -0.0758,-0.10966 -0.12694,-0.20872 -0.15579,-0.29688 z"
       id="path865-5"
       inkscape:path-effect="#path-effect912"
       inkscape:original-d="m 118.37155,138.81299 c 0.95393,2.91497 24.02854,15.12635 19.10274,-15.46705 -4.9258,-30.593405 -22.11713,-28.218039 -25.26789,-43.367552 -1.65383,7.430499 5.12884,10.20263 -14.504331,26.560692 C 84.120288,85.342937 75.434853,90.701232 63.536976,96.239928 c 11.65016,4.881552 12.949159,12.976982 10.646905,24.860782 -3.010362,15.53893 -8.197831,25.52386 -13.598065,38.01626"
       sodipodi:nodetypes="czcccsc" />
    <path
       style="fill:url(#linearGradient879);fill-opacity:1;fill-rule:nonzero;stroke:none;stroke-width:0.264583px;stroke-linecap:butt;stroke-linejoin:miter;stroke-opacity:1"
       d="m 124.62908,143.06312 c 0.0539,-0.001 0.12325,0.005 0.21012,0.018 0.0819,0.0126 0.17828,0.0314 0.29166,0.0561 0.2193,0.0478 0.46652,0.10938 0.8022,0.18967 0.55608,0.133 1.38045,0.32403 2.30904,0.44788 0.83964,0.11199 1.85498,0.18247 2.93186,0.0839 0.99562,-0.0911 2.09573,-0.33102 3.18482,-0.86037 1.02928,-0.50028 2.06643,-1.26785 2.99148,-2.43516 0.88261,-1.11376 1.66004,-2.58838 2.22864,-4.52979 0.5482,-1.87174 0.9041,-4.18185 0.9754,-7.036 0.0694,-2.77708 -0.1304,-6.0788 -0.68982,-10.01099 -1.09962,-7.72483 -3.20764,-13.54032 -5.86601,-18.2445 -2.60913,-4.61705 -5.64234,-7.978073 -8.41841,-10.934457 -1.39669,-1.487413 -2.65464,-2.796404 -3.79628,-4.133805 -1.13818,-1.333346 -2.08012,-2.604271 -2.81928,-3.936715 -0.74081,-1.335402 -1.27462,-2.727788 -1.58378,-4.285237 -0.31514,-1.587528 -0.40818,-3.405503 -0.20158,-5.568663 0.16895,-1.76903 0.51435,-3.516735 1.03104,-5.217039 -2.27141,0.345273 -4.40206,1.31538 -6.15385,2.80191 -1.13212,0.960701 -1.96084,2.015224 -2.53529,3.190779 -0.58492,1.196976 -0.83694,2.38031 -0.9633,3.430475 -0.12338,1.025296 -0.14345,2.136028 -0.16975,2.939604 -0.031,0.948444 -0.0723,1.737254 -0.18871,2.561058 -0.12121,0.857623 -0.31875,1.697323 -0.63591,2.576022 -0.35109,0.97273 -0.85737,2.011912 -1.56681,3.134237 -1.19839,1.89587 -2.87394,3.870853 -4.97941,5.94201 -0.1468,0.144401 -0.29962,0.29336 -0.45872,0.446836 -2.517149,-3.175391 -5.392935,-5.971589 -8.658376,-7.940225 -1.929192,-1.163051 -3.950725,-2.01139 -6.062852,-2.501377 -1.981529,-0.45969 -3.969026,-0.586971 -5.95658,-0.416437 -1.894964,0.16259 -3.745431,0.591728 -5.555739,1.219547 -1.754369,0.608419 -3.466462,1.401768 -5.142802,2.314845 -3.271622,1.782003 -6.456377,4.049073 -9.539908,6.307781 -2.46164,1.803169 -4.902643,3.634342 -7.322533,5.493164 2.890655,-0.6729 5.794482,-1.287913 8.709736,-1.844669 5.340316,-1.019895 9.389188,-1.588895 12.715044,-1.648017 1.70436,-0.0303 3.199428,0.07426 4.555053,0.315539 1.407646,0.250542 2.67158,0.649925 3.852984,1.201668 1.250749,0.584128 2.406762,1.338512 3.515456,2.252578 1.199998,0.989341 2.333879,2.157718 3.429138,3.451358 2.644202,3.12316 5.368159,7.39081 7.447806,10.82905 -1.976586,-3.26785 -4.724112,-7.97376 -7.012172,-11.16839 -0.994816,-1.38898 -2.038421,-2.70233 -3.16555,-3.867169 -1.043402,-1.07831 -2.174012,-2.046569 -3.454045,-2.867399 -1.214204,-0.778617 -2.555681,-1.420396 -4.090115,-1.910958 -1.476421,-0.472015 -3.110022,-0.797391 -4.960389,-0.98091 -1.221621,-0.121159 -2.528442,-0.179717 -3.937758,-0.180094 0.505641,-0.226231 1.009472,-0.44093 1.512015,-0.642743 1.57224,-0.631385 3.069809,-1.110565 4.509167,-1.420368 1.480886,-0.318741 2.860792,-0.449577 4.163606,-0.400438 1.355663,0.05113 2.626072,0.297037 3.843408,0.72734 1.297905,0.458781 2.568289,1.139067 3.831088,2.054694 3.060502,2.219102 5.91405,5.706 8.622908,10.052675 0.798887,1.28191 1.554998,2.58998 2.267086,3.92206 1.326194,-0.95037 2.622674,-1.94153 3.887584,-2.97206 1.77639,-1.44725 3.1951,-2.73157 4.334,-3.851897 2.42186,-2.382383 4.57617,-4.961867 6.15103,-7.704823 0.95595,-1.664992 1.66492,-3.330532 2.12769,-5.012911 0.42096,-1.530395 0.61055,-2.972461 0.65295,-4.347482 0.0391,-1.26782 -0.0492,-2.403057 -0.1479,-3.383931 -0.10163,-1.010005 -0.18186,-1.604449 -0.21935,-2.272012 -0.0305,-0.543475 -0.0172,-0.960016 0.0543,-1.292905 0.0702,-0.327007 0.22979,-0.745511 0.70704,-1.289505 l -5.12281,-2.415129 c -0.10032,2.706377 0.17015,5.116301 0.78363,7.303799 0.60351,2.151939 1.51695,4.011065 2.64259,5.685532 1.10426,1.642641 2.39805,3.085895 3.7606,4.440659 1.34018,1.332521 2.81247,2.641822 4.24946,3.958475 2.9088,2.665216 5.89731,5.562024 8.52001,9.62802 2.67357,4.14484 4.9502,9.48747 6.28399,16.87719 0.68579,3.80146 1.01476,6.96512 1.08382,9.60422 0.071,2.71166 -0.13233,4.87519 -0.50821,6.60965 -0.38903,1.79513 -0.9669,3.14911 -1.63599,4.18154 -0.70062,1.08108 -1.52095,1.83965 -2.37796,2.37709 -0.91257,0.57229 -1.88228,0.90307 -2.81319,1.08799 -1.00543,0.19973 -1.98339,0.23254 -2.81849,0.20365 -0.92094,-0.0319 -1.74999,-0.14294 -2.31742,-0.22584 -0.33118,-0.0484 -0.60245,-0.0915 -0.81575,-0.12121 -0.11537,-0.0161 -0.21276,-0.0283 -0.29557,-0.0363 -0.0878,-0.008 -0.15714,-0.0121 -0.21104,-0.0107 z"
       id="path865"
       inkscape:path-effect="#path-effect867"
       inkscape:original-d="m 124.62908,143.06312 c 1.77894,-0.0454 18.8984,6.71996 13.9726,-23.87344 -4.9258,-30.593399 -25.70449,-27.819315 -24.46281,-47.498526 -6.32079,5.9206 5.39778,11.830303 -14.235385,28.188364 C 86.321705,78.683376 73.453448,86.062645 60.731989,94.346611 82.119972,91.125926 85.541803,94.532527 96.544857,112.72368"
       sodipodi:nodetypes="czcccc" />
  </g>
  <g
     inkscape:groupmode="layer"
     id="layer2"
     inkscape:label="Layer 2" />
</svg>
