<?xml version="1.0" encoding="UTF-8" standalone="no"?>
<svg
   xmlns:dc="http://purl.org/dc/elements/1.1/"
   xmlns:cc="http://creativecommons.org/ns#"
   xmlns:rdf="http://www.w3.org/1999/02/22-rdf-syntax-ns#"
   xmlns:svg="http://www.w3.org/2000/svg"
   xmlns="http://www.w3.org/2000/svg"
   xmlns:xlink="http://www.w3.org/1999/xlink"
   xmlns:sodipodi="http://sodipodi.sourceforge.net/DTD/sodipodi-0.dtd"
   xmlns:inkscape="http://www.inkscape.org/namespaces/inkscape"
   width="210mm"
   height="297mm"
   viewBox="0 0 210 297"
   version="1.1"
   id="svg8"
   sodipodi:docname="Manaverse4.svg"
   inkscape:version="1.0.1 (3bc2e813f5, 2020-09-07)">
  <defs
     id="defs2">
    <inkscape:path-effect
       effect="powerstroke"
       id="path-effect1058"
       is_visible="true"
       lpeversion="1"
       offset_points="0.20196527,-3.4431028"
       sort_points="true"
       interpolator_type="CubicBezierJohan"
       interpolator_beta="0.2"
       start_linecap_type="zerowidth"
       linejoin_type="extrp_arc"
       miter_limit="4"
       scale_width="1"
       end_linecap_type="zerowidth" />
    <inkscape:path-effect
       effect="powerstroke"
       id="path-effect949"
       is_visible="true"
       lpeversion="1"
       offset_points="0.5816306,3.8262755"
       sort_points="true"
       interpolator_type="CubicBezierJohan"
       interpolator_beta="0.2"
       start_linecap_type="zerowidth"
       linejoin_type="extrp_arc"
       miter_limit="4"
       scale_width="1"
       end_linecap_type="zerowidth" />
    <inkscape:path-effect
       effect="powerstroke"
       id="path-effect945"
       is_visible="true"
       lpeversion="1"
       offset_points="0.09557673,-5.0144294"
       sort_points="true"
       interpolator_type="CubicBezierJohan"
       interpolator_beta="0.2"
       start_linecap_type="zerowidth"
       linejoin_type="extrp_arc"
       miter_limit="4"
       scale_width="1"
       end_linecap_type="zerowidth" />
    <linearGradient
       inkscape:collect="always"
       id="linearGradient937">
      <stop
         style="stop-color:#4875e6;stop-opacity:1;"
         offset="0"
         id="stop933" />
      <stop
         style="stop-color:#ff5050;stop-opacity:1"
         offset="1"
         id="stop935" />
    </linearGradient>
    <inkscape:path-effect
       effect="powerstroke"
       id="path-effect931"
       is_visible="true"
       lpeversion="1"
       offset_points="2.9218323,4.1913499"
       sort_points="true"
       interpolator_type="CubicBezierJohan"
       interpolator_beta="0.2"
       start_linecap_type="zerowidth"
       linejoin_type="extrp_arc"
       miter_limit="4"
       scale_width="1"
       end_linecap_type="zerowidth" />
    <inkscape:path-effect
       effect="powerstroke"
       id="path-effect912"
       is_visible="true"
       lpeversion="1"
       offset_points="2.9218323,4.1913499"
       sort_points="true"
       interpolator_type="CubicBezierJohan"
       interpolator_beta="0.2"
       start_linecap_type="zerowidth"
       linejoin_type="extrp_arc"
       miter_limit="4"
       scale_width="1"
       end_linecap_type="zerowidth" />
    <linearGradient
       inkscape:collect="always"
       id="linearGradient873">
      <stop
         style="stop-color:#ffe060;stop-opacity:1"
         offset="0"
         id="stop869" />
      <stop
         style="stop-color:#f2fc00;stop-opacity:0.44606414"
         offset="1"
         id="stop871" />
    </linearGradient>
    <inkscape:path-effect
       effect="powerstroke"
       id="path-effect867"
       is_visible="true"
       lpeversion="1"
       offset_points="2.9218323,4.1913499"
       sort_points="true"
       interpolator_type="CubicBezierJohan"
       interpolator_beta="0.2"
       start_linecap_type="zerowidth"
       linejoin_type="extrp_arc"
       miter_limit="4"
       scale_width="1"
       end_linecap_type="zerowidth" />
    <inkscape:path-effect
       effect="powerstroke"
       id="path-effect863"
       is_visible="true"
       lpeversion="1"
       offset_points="0,5.72807"
       sort_points="true"
       interpolator_type="CubicBezierJohan"
       interpolator_beta="0.2"
       start_linecap_type="zerowidth"
       linejoin_type="extrp_arc"
       miter_limit="4"
       scale_width="1"
       end_linecap_type="zerowidth" />
    <inkscape:path-effect
       effect="powerstroke"
       id="path-effect859"
       is_visible="true"
       lpeversion="1"
       offset_points="0,5.72807"
       sort_points="true"
       interpolator_type="CubicBezierJohan"
       interpolator_beta="0.2"
       start_linecap_type="zerowidth"
       linejoin_type="extrp_arc"
       miter_limit="4"
       scale_width="1"
       end_linecap_type="zerowidth" />
    <inkscape:path-effect
       effect="powerstroke"
       id="path-effect855"
       is_visible="true"
       lpeversion="1"
       offset_points="0,5.72807"
       sort_points="true"
       interpolator_type="CubicBezierJohan"
       interpolator_beta="0.2"
       start_linecap_type="zerowidth"
       linejoin_type="extrp_arc"
       miter_limit="4"
       scale_width="1"
       end_linecap_type="zerowidth" />
    <inkscape:path-effect
       effect="powerstroke"
       id="path-effect851"
       is_visible="true"
       lpeversion="1"
       offset_points="0,5.72807"
       sort_points="true"
       interpolator_type="CubicBezierJohan"
       interpolator_beta="0.2"
       start_linecap_type="zerowidth"
       linejoin_type="extrp_arc"
       miter_limit="4"
       scale_width="1"
       end_linecap_type="zerowidth" />
    <inkscape:path-effect
       effect="powerstroke"
       id="path-effect843"
       is_visible="true"
       lpeversion="1"
       offset_points="0,5.72807"
       sort_points="true"
       interpolator_type="CubicBezierJohan"
       interpolator_beta="0.2"
       start_linecap_type="zerowidth"
       linejoin_type="extrp_arc"
       miter_limit="4"
       scale_width="1"
       end_linecap_type="zerowidth" />
    <rect
       x="39.22995"
       y="73.844612"
       width="161.53509"
       height="173.07331"
       id="rect835" />
    <linearGradient
       inkscape:collect="always"
       xlink:href="#linearGradient873"
       id="linearGradient879"
       x1="101.59774"
       y1="108.00024"
       x2="104.38918"
       y2="32.132378"
       gradientUnits="userSpaceOnUse" />
    <radialGradient
       inkscape:collect="always"
       xlink:href="#linearGradient937"
       id="radialGradient941"
       cx="31.691263"
       cy="117.97118"
       fx="31.691263"
       fy="117.97118"
       r="31.9278"
       gradientTransform="matrix(1.0387585,-0.82901661,0.61188551,0.766693,-42.940851,62.194515)"
       gradientUnits="userSpaceOnUse" />
  </defs>
  <sodipodi:namedview
     id="base"
     pagecolor="#ffffff"
     bordercolor="#666666"
     borderopacity="1.0"
     inkscape:pageopacity="0.0"
     inkscape:pageshadow="2"
     inkscape:zoom="0.96377841"
     inkscape:cx="347.22021"
     inkscape:cy="404.60103"
     inkscape:document-units="mm"
     inkscape:current-layer="layer1"
     inkscape:document-rotation="0"
     showgrid="false"
     inkscape:window-width="1920"
     inkscape:window-height="1017"
     inkscape:window-x="-8"
     inkscape:window-y="-8"
     inkscape:window-maximized="1" />
  <metadata
     id="metadata5">
    <rdf:RDF>
      <cc:Work
         rdf:about="">
        <dc:format>image/svg+xml</dc:format>
        <dc:type
           rdf:resource="http://purl.org/dc/dcmitype/StillImage" />
        <dc:title></dc:title>
      </cc:Work>
    </rdf:RDF>
  </metadata>
  <g
     inkscape:label="Layer 1"
     inkscape:groupmode="layer"
     id="layer1">
    <path
       style="fill:#c93a61;fill-opacity:1;fill-rule:nonzero;stroke:none;stroke-width:0.264583px;stroke-linecap:butt;stroke-linejoin:miter;stroke-opacity:1"
       d="m 109.39614,85.703969 c 1.07937,0.736035 3.71527,1.618707 6.35093,2.87465 2.68369,1.278828 5.19627,2.807844 6.18153,3.964476 0.69461,0.815424 1.42177,1.718754 2.16951,2.712291 2.98842,3.970796 6.17635,9.222954 8.77857,15.496814 2.05219,4.94774 3.64734,10.33475 4.30989,15.49467 0.30505,2.37569 0.40971,4.69176 0.26353,6.85313 -0.14225,2.10318 -0.52346,4.07787 -1.20075,5.8108 -0.59331,1.48028 -1.40232,2.66094 -2.39622,3.52969 -0.99921,0.8734 -2.1209,1.37545 -3.26625,1.59605 -1.15234,0.22195 -2.31374,0.15741 -3.41134,-0.0685 -1.13493,-0.23355 -2.24375,-0.6481 -3.27294,-1.15097 -2.26253,-1.10549 -4.23247,-2.67514 -5.63935,-4.10287 -0.83859,-0.85101 -1.49259,-1.66344 -1.98193,-2.38608 -0.61171,-0.90334 -0.95424,-1.64611 -1.15207,-2.22427 0.19849,0.58009 0.60243,1.2946 1.29949,2.11215 0.55704,0.65333 1.29734,1.36538 2.21236,2.073 1.55147,1.19983 3.63105,2.39955 5.84192,3.05884 1.00382,0.29935 2.00504,0.47675 2.94631,0.48939 0.91457,0.0123 1.72873,-0.13156 2.41519,-0.42994 0.66615,-0.28955 1.20381,-0.71981 1.63366,-1.29838 0.42863,-0.57693 0.7946,-1.36176 1.04323,-2.42883 0.33222,-1.32707 0.47097,-2.90062 0.4129,-4.67881 -0.0595,-1.82257 -0.32429,-3.81632 -0.76961,-5.91205 -0.97054,-4.56753 -2.73962,-9.36808 -4.89516,-13.83027 -2.73028,-5.65198 -5.83596,-10.29202 -8.60882,-13.833998 -0.69142,-0.883194 -1.3529,-1.687069 -1.97423,-2.416474 -0.84599,-0.993133 -1.93516,-3.497055 -3.27111,-5.896492 -1.36823,-2.457413 -2.87697,-4.62913 -4.01924,-5.408057 z"
       id="path943-3"
       inkscape:path-effect="#path-effect1058"
       inkscape:original-d="m 109.39614,85.703969 c 17.81448,12.147887 28.99437,40.459291 24.98924,52.591491 -3.37501,10.22347 -17.38647,1.27248 -19.25613,-4.19157"
       sodipodi:nodetypes="csc" />
    <path
       style="fill:#c93a61;fill-opacity:1;fill-rule:nonzero;stroke:none;stroke-width:0.264583px;stroke-linecap:butt;stroke-linejoin:miter;stroke-opacity:1"
       d="m 72.886955,98.280716 c 0.223147,0.16736 0.272364,1.086196 0.574172,2.112954 0.259614,0.88322 0.644181,1.82681 0.946657,2.35097 0.143025,0.24784 0.272236,0.40897 0.385589,0.43997 0.262459,0.0718 0.5573,0.11306 0.847372,0.12947 0.334177,0.0189 0.653165,0.005 0.91447,-0.0343 -0.0076,0.001 -0.01529,0.002 -0.02294,0.003 0.05188,0.0178 0.103696,0.0358 0.15544,0.054 2.402917,0.84454 4.811783,2.16944 7.169978,4.0421 2.177149,1.72888 4.228319,3.86023 6.097049,6.32761 3.621707,4.78193 6.256113,10.43219 7.671505,15.6527 0.705192,2.60103 1.153157,5.26504 1.337441,7.95365 0.25041,-2.62914 0.768048,-5.22593 1.544899,-7.75013 1.05806,-3.43796 2.59157,-6.72187 4.2407,-9.79047 1.70741,-3.17705 3.6797,-6.36656 5.24925,-8.98076 1.8879,-3.14443 3.30556,-5.63692 4.32322,-7.99257 0.57705,-1.33572 0.97117,-2.51002 1.21797,-3.576351 0.29719,-1.283997 0.36689,-2.354768 0.31072,-3.275703 0.0563,0.922631 -0.058,1.99155 -0.43044,3.244097 -0.30886,1.038687 -0.78436,2.169517 -1.45524,3.436797 -1.17887,2.22689 -2.79351,4.57997 -4.92521,7.53125 -1.76557,2.44438 -4.03723,5.50169 -6.04497,8.56894 -1.14601,1.75076 -2.28421,3.61763 -3.324061,5.58763 -1.134349,-4.46856 -3.007517,-9.13013 -5.599296,-13.39165 -1.796658,-2.95414 -3.90298,-5.65802 -6.295506,-7.97246 -2.598052,-2.51327 -5.459374,-4.49614 -8.532033,-5.884185 l 0.132502,0.05734 c -0.601318,-0.429927 -1.197139,-0.74918 -1.620989,-0.950618 -0.381028,-0.181086 -0.703266,-0.305651 -0.942868,-0.371187 -0.107369,-0.02937 -0.27944,0.04931 -0.486101,0.197814 -0.441747,0.31744 -1.032976,0.957853 -1.655952,1.476885 -0.722531,0.601975 -1.560184,0.970183 -1.783331,0.802823 z"
       id="path947"
       inkscape:path-effect="#path-effect949"
       inkscape:original-d="m 72.886955,98.280716 c 1.448679,1.086509 3.471887,1.185209 5.078751,1.921694 11.532793,4.70173 18.883183,17.9823 21.130349,28.85334 4.945185,-13.76844 17.264675,-24.7424 16.754395,-33.108514"
       sodipodi:nodetypes="cccc" />
    <path
       style="fill:#c93a61;fill-opacity:1;fill-rule:nonzero;stroke:none;stroke-width:0.264583px;stroke-linecap:butt;stroke-linejoin:miter;stroke-opacity:1"
       d="m 67.0702,96.497654 c 0.75338,0.402719 3.427526,-0.289379 5.775867,-0.132276 1.39057,0.09303 2.587229,0.413528 2.97215,0.87887 0.477523,0.577291 0.954566,1.238207 1.408769,1.986157 1.507614,2.482635 2.586586,5.624835 2.918771,9.479215 0.264317,3.06692 0.0402,6.38055 -0.620043,9.90968 -0.60324,3.22445 -1.554703,6.54342 -2.74934,9.87267 -2.389976,6.66046 -5.638009,13.04385 -8.525571,18.12577 -1.624455,2.85893 -3.133952,5.30556 -4.341694,7.21633 -1.650767,2.61168 -2.685146,4.15028 -3.323293,5.2829 0.579572,-1.02866 1.461702,-2.9286 2.594736,-5.66088 0.852456,-2.05567 1.917003,-4.7586 2.996555,-7.78953 1.94367,-5.45703 3.98021,-12.09342 5.115761,-18.64008 0.567139,-3.26965 0.879927,-6.34416 0.905824,-9.17123 0.02837,-3.09706 -0.289674,-5.65726 -0.840491,-7.76417 -0.675963,-2.58561 -1.647494,-4.27984 -2.501244,-5.46654 -0.265625,-0.36921 -0.525487,-0.69676 -0.766462,-0.98808 -0.191226,-0.23118 -0.006,-1.07011 0.07379,-2.17235 0.139634,-1.928677 -0.188772,-4.48252 -1.094087,-4.966456 z"
       id="path943"
       inkscape:path-effect="#path-effect945"
       inkscape:original-d="M 67.0702,96.497654 C 87.932368,107.64952 66.941282,147.83688 60.585816,159.11697"
       sodipodi:nodetypes="cc" />
    <text
       xml:space="preserve"
       id="text833"
       style="font-style:normal;font-variant:normal;font-weight:normal;font-stretch:normal;font-size:50.8px;line-height:1.25;font-family:'Cinzel Decorative';-inkscape-font-specification:'Cinzel Decorative';white-space:pre;shape-inside:url(#rect835);display:none;fill:url(#radialGradient941);fill-opacity:1;stroke:none;"
       transform="translate(35.983546,12.836164)" />
    <path
       style="fill:#f35252;fill-opacity:1;fill-rule:nonzero;stroke:none;stroke-width:0.264583px;stroke-linecap:butt;stroke-linejoin:miter;stroke-opacity:1"
       d="m 115.12925,134.10389 c 0.13269,0.50834 0.35119,1.0698 0.67554,1.68074 0.29152,0.54912 0.6671,1.13519 1.13491,1.74756 0.83255,1.08981 1.95955,2.26368 3.35744,3.38583 1.24392,0.99857 2.71089,1.96095 4.3054,2.71813 1.46539,0.69587 3.06986,1.23223 4.68051,1.41851 0.77036,0.0891 1.55116,0.0991 2.32238,0.002 0.75221,-0.0943 1.49906,-0.29033 2.21865,-0.6169 0.704,-0.31949 1.3786,-0.76266 1.99964,-1.35204 0.60842,-0.5774 1.1599,-1.28992 1.63525,-2.1525 0.92571,-1.67977 1.55685,-3.91415 1.77244,-6.82514 0.2095,-2.82886 0.0268,-6.31205 -0.67584,-10.57446 -1.37071,-8.31629 -3.66852,-14.38999 -6.47482,-18.98825 -2.76629,-4.53271 -5.91986,-7.459127 -8.85075,-9.690304 -1.4323,-1.090357 -2.8252,-2.023609 -3.97247,-2.827323 -1.19782,-0.839123 -2.10475,-1.521561 -2.772,-2.19732 -0.32642,-0.330573 -0.56615,-0.631292 -0.74,-0.912158 -0.173,-0.279486 -0.27884,-0.536088 -0.34391,-0.785366 -0.0646,-0.24736 -0.0981,-0.523631 -0.0958,-0.845329 0.002,-0.330175 0.0431,-0.738654 0.15102,-1.245649 l -6.06071,-0.340372 c 0.0137,2.892687 -0.0198,5.183068 -0.10421,7.044013 -0.0873,1.924502 -0.22725,3.342307 -0.41133,4.430434 -0.19116,1.129958 -0.4214,1.850354 -0.65308,2.360716 -0.23146,0.509868 -0.50234,0.887908 -0.81092,1.263598 -0.36611,0.44573 -0.80778,0.91245 -1.44442,1.59322 -0.69652,0.74479 -1.47718,1.59093 -2.36089,2.66403 -1.47809,1.79489 -2.92217,3.83966 -4.388782,6.28092 -0.671596,1.11792 -1.455518,2.51143 -2.34463,4.23787 l 7.163362,-0.29146 C 98.219421,106.42092 90.03928,98.142447 80.032402,94.26243 76.068744,92.725581 72.087903,92.002104 68.308309,92.145594 c -3.641848,0.13826 -6.975119,1.078758 -9.782612,2.71992 -1.884064,1.101358 -3.554914,2.532275 -4.932916,4.22455 1.794797,-0.514584 3.673112,-0.67206 5.528536,-0.463507 1.381704,0.155306 2.572245,0.493458 3.603177,0.979375 1.035054,0.487858 1.936731,1.137608 2.721878,1.940558 0.793046,0.81103 1.473872,1.78549 2.046549,2.91519 0.578514,1.14122 1.040357,2.42858 1.394191,3.84003 0.723853,2.88748 0.977065,6.21771 0.902165,9.73122 -0.07763,3.64153 -0.506068,7.44588 -1.108765,11.13061 -1.307699,7.99492 -3.491771,15.7409 -4.995867,20.63986 -2.116625,6.89403 -3.098829,9.31357 -3.098829,9.31357 0,0 1.160722,-2.3401 3.622534,-9.13845 1.755024,-4.84654 4.292748,-12.48208 6.011945,-20.52437 0.789012,-3.69094 1.425776,-7.56214 1.71056,-11.31619 0.273585,-3.60643 0.228354,-7.17909 -0.357304,-10.41072 -0.287864,-1.58841 -0.709906,-3.11517 -1.301596,-4.53509 -0.5866,-1.4077 -1.344504,-2.72121 -2.312724,-3.885829 -0.96412,-1.159691 -2.12826,-2.161154 -3.515508,-2.953786 -1.381052,-0.789092 -2.955413,-1.355299 -4.726902,-1.675654 l 0.595621,3.761043 c 2.354411,-0.941736 5.036701,-1.301868 7.898338,-1.043567 2.976029,0.268626 6.096037,1.200445 9.222383,2.780373 7.949924,4.01759 14.510114,11.40477 19.615162,19.5934 1.325626,2.12635 2.558416,4.30918 3.694895,6.54234 1.08095,-2.31533 2.23773,-4.59449 3.46849,-6.83379 0.85927,-1.5634 1.60171,-2.82884 2.1965,-3.81888 1.32142,-2.19953 2.48858,-3.93418 3.66883,-5.53327 0.75899,-1.02834 1.26893,-1.66622 1.979,-2.59396 0.55259,-0.72197 1.19927,-1.58584 1.74745,-2.51925 0.54263,-0.92395 1.01046,-1.94446 1.35168,-3.18293 0.31804,-1.15435 0.50424,-2.414964 0.59899,-3.899489 0.0904,-1.416079 0.10026,-3.08208 0.0489,-5.123037 -0.0499,-1.982604 -0.15861,-4.358984 -0.317,-7.282313 -0.17675,-3.261927 -0.37832,-6.522461 -0.6047,-9.781319 -3.07707,2.229186 -5.06085,5.661864 -5.45601,9.440947 -0.0974,0.931303 -0.0925,1.834409 0.032,2.701635 0.12408,0.864498 0.36356,1.672079 0.7157,2.423577 0.34823,0.743138 0.78956,1.395217 1.29092,1.974012 0.49434,0.570682 1.04298,1.065521 1.6109,1.506522 1.10145,0.855297 2.38918,1.591526 3.64915,2.293354 1.29231,0.719846 2.62496,1.440193 4.02625,2.326688 2.76478,1.749063 5.74414,4.117223 8.44815,8.010683 2.77069,3.98948 5.2357,9.56076 6.84042,17.57491 0.82024,4.0959 1.12441,7.38407 1.06355,10.01039 -0.0625,2.69845 -0.50879,4.6901 -1.17609,6.15406 -0.34175,0.74976 -0.74401,1.36592 -1.18956,1.86981 -0.45469,0.51423 -0.96136,0.91931 -1.50823,1.2306 -0.56054,0.31908 -1.16776,0.54207 -1.80932,0.68002 -0.65908,0.14172 -1.35197,0.19314 -2.06272,0.16752 -1.49269,-0.0538 -3.04197,-0.44593 -4.5092,-1.03101 -1.59017,-0.6341 -3.079,-1.49143 -4.35717,-2.41159 -1.43439,-1.03263 -2.60532,-2.14312 -3.47427,-3.19273 -0.48823,-0.58973 -0.88191,-1.16048 -1.18693,-1.70023 -0.33945,-0.60068 -0.5669,-1.1588 -0.69968,-1.66751 z"
       id="path865-5-3"
       inkscape:path-effect="#path-effect931"
       inkscape:original-d="m 115.12925,134.10389 c 2.2602,8.6591 28.19188,22.72556 22.16797,-10.33859 -6.02391,-33.06414 -26.50957,-26.570876 -24.8561,-38.15154 0.67965,22.94128 -1.59707,12.536111 -11.89633,31.91397 C 86.963015,96.331588 69.669783,91.524814 59.419069,96.651719 c 25.194566,3.798661 1.166747,62.465251 1.166747,62.465251"
       sodipodi:nodetypes="czcccc" />
    <path
       style="display:inline;fill:#f8b342;fill-opacity:0.998542;fill-rule:nonzero;stroke:none;stroke-width:0.264583px;stroke-linecap:butt;stroke-linejoin:miter;stroke-opacity:1"
       d="m 118.37155,138.81299 c 0.0288,0.088 0.0777,0.18822 0.14963,0.30097 0.0677,0.10609 0.15572,0.22324 0.26604,0.35107 0.20446,0.2369 0.48612,0.5111 0.85124,0.81351 0.64535,0.53453 1.57457,1.17459 2.74349,1.79307 1.03982,0.55018 2.30174,1.09909 3.67939,1.49208 1.26767,0.36162 2.67907,0.60382 4.10306,0.55528 0.68199,-0.0232 1.37573,-0.11351 2.06241,-0.29469 0.66966,-0.17668 1.33544,-0.44051 1.97761,-0.81569 1.24715,-0.72864 2.38892,-1.8687 3.27257,-3.55933 0.8497,-1.62567 1.4524,-3.74414 1.69358,-6.46918 0.23459,-2.65061 0.12854,-5.88927 -0.43348,-9.83746 -1.09432,-7.69077 -2.97037,-13.51594 -5.33723,-18.17172 -2.33082,-4.5849 -5.05344,-7.872948 -7.72089,-10.658294 -1.3017,-1.359231 -2.62545,-2.633449 -3.7814,-3.786808 -1.19463,-1.191942 -2.24347,-2.286547 -3.15905,-3.422361 -0.91888,-1.139918 -1.66736,-2.278345 -2.25354,-3.513513 -0.59308,-1.249699 -1.03379,-2.628191 -1.29609,-4.231828 -0.49248,-3.010889 -0.23791,-6.096653 0.74133,-8.986129 -3.25516,2.057871 -5.63912,5.241748 -6.69737,8.944589 -0.3348,1.17149 -0.49326,2.24351 -0.57466,3.221178 -0.0803,0.964335 -0.0889,1.922447 -0.10549,2.63863 -0.0189,0.813477 -0.0481,1.426015 -0.13144,2.030593 -0.0838,0.607785 -0.21853,1.162157 -0.42319,1.730358 -0.22039,0.611873 -0.5421,1.293791 -1.01643,2.075237 -0.52989,0.872977 -1.23631,1.846991 -2.16405,2.947777 -1.54759,1.836242 -3.53061,3.811671 -5.804702,5.887402 -0.182552,0.166629 -0.372594,0.339299 -0.570418,0.518059 -2.35625,-3.135011 -4.928085,-5.96954 -7.694642,-8.126079 -1.648056,-1.284664 -3.361604,-2.327864 -5.15155,-3.075476 -1.68503,-0.703791 -3.388383,-1.125002 -5.115685,-1.26744 -1.64912,-0.135989 -3.253164,-0.0127 -4.824775,0.30538 -1.51904,0.307444 -2.990787,0.793221 -4.432722,1.385243 -2.786483,1.144059 -5.601982,2.749377 -8.44574,4.302799 -1.018578,0.556404 -2.040461,1.106739 -3.065593,1.650975 0.915621,0.485789 1.789104,1.047144 2.611355,1.678219 1.597426,1.22602 2.947274,2.673701 4.067911,4.331419 1.137496,1.68265 2.035194,3.57667 2.710193,5.65705 1.417843,4.36985 1.810144,9.42758 1.489395,14.75618 -0.358855,5.96164 -1.601711,12.13812 -3.173683,17.87277 -2.041522,7.44759 -4.680677,14.30551 -6.831118,19.28014 2.135867,-4.94092 4.992217,-11.78115 7.360293,-19.12232 1.827669,-5.66589 3.434712,-11.83784 4.204588,-17.88383 0.685183,-5.38089 0.719276,-10.74768 -0.399973,-15.62897 -0.536848,-2.34131 -1.341827,-4.58386 -2.476888,-6.669487 -0.631685,-1.160697 -1.363537,-2.268871 -2.203636,-3.314709 2.083877,-0.798858 3.979625,-1.47597 5.816677,-1.931194 1.285094,-0.318448 2.458504,-0.505346 3.560015,-0.55408 1.128335,-0.04992 2.157334,0.04637 3.131879,0.279579 1.013206,0.242461 2.001895,0.6414 2.998826,1.213149 1.069406,0.613314 2.172003,1.440666 3.314789,2.504379 2.775597,2.583543 5.543335,6.328213 8.313218,10.770003 0.808765,1.29693 1.590945,2.61025 2.34605,3.93914 1.287339,-0.97349 2.557084,-1.97004 3.808616,-2.98915 1.73835,-1.41552 3.15047,-2.6376 4.30392,-3.69044 2.4295,-2.21759 4.73105,-4.57625 6.55531,-6.933711 1.10716,-1.430769 2.04209,-2.863098 2.7651,-4.306431 0.65964,-1.316829 1.12852,-2.61363 1.41031,-3.914417 0.26336,-1.215767 0.34469,-2.347451 0.31798,-3.422335 -0.0249,-1.000774 -0.14256,-1.910771 -0.25898,-2.71274 -0.11455,-0.789092 -0.22292,-1.446186 -0.28489,-2.122946 -0.0579,-0.632328 -0.0741,-1.278748 0.0109,-1.98624 l -5.95604,-0.04154 c 0.51827,2.145759 1.29278,4.013083 2.28053,5.684591 0.96692,1.636256 2.10752,3.033626 3.33913,4.300435 1.20871,1.243265 2.51772,2.373054 3.83313,3.472562 1.32518,1.107661 2.64529,2.175524 3.99374,3.372535 2.66496,2.365665 5.34736,5.158557 7.71207,9.187437 2.41883,4.12108 4.49053,9.51484 5.82898,16.93302 0.68322,3.78534 0.91562,6.83824 0.83162,9.29816 -0.0863,2.52654 -0.50627,4.42894 -1.11669,5.86166 -0.63006,1.47882 -1.47894,2.49548 -2.43834,3.18788 -0.49947,0.36046 -1.03622,0.63825 -1.5985,0.84563 -0.57761,0.21303 -1.18179,0.3516 -1.79834,0.42865 -1.29356,0.16166 -2.63175,0.0515 -3.88502,-0.20147 -1.35618,-0.27378 -2.62405,-0.71645 -3.6852,-1.18495 -1.19024,-0.5255 -2.15139,-1.09553 -2.8229,-1.58314 -0.37995,-0.2759 -0.67522,-0.53058 -0.89053,-0.75517 -0.11605,-0.12105 -0.20899,-0.23348 -0.28025,-0.33664 -0.0758,-0.10966 -0.12694,-0.20872 -0.15579,-0.29688 z"
       id="path865-5"
       inkscape:path-effect="#path-effect912"
       inkscape:original-d="m 118.37155,138.81299 c 0.95393,2.91497 24.02854,15.12635 19.10274,-15.46705 -4.9258,-30.593405 -22.11713,-28.218039 -25.26789,-43.367552 -1.65383,7.430499 5.12884,10.20263 -14.504331,26.560692 C 84.120288,85.342937 75.518096,90.162107 63.620219,95.700803 77.147381,107.25486 71.77236,133.23905 60.585816,159.11697"
       sodipodi:nodetypes="czcccc" />
    <path
       style="fill:url(#linearGradient879);fill-opacity:1;fill-rule:nonzero;stroke:none;stroke-width:0.264583px;stroke-linecap:butt;stroke-linejoin:miter;stroke-opacity:1"
       d="m 124.62908,143.06312 c 0.0539,-0.001 0.12325,0.005 0.21012,0.018 0.0819,0.0126 0.17828,0.0314 0.29166,0.0561 0.2193,0.0478 0.46652,0.10938 0.8022,0.18967 0.55608,0.133 1.38045,0.32403 2.30904,0.44788 0.83964,0.11199 1.85498,0.18247 2.93186,0.0839 0.99562,-0.0911 2.09573,-0.33102 3.18482,-0.86037 1.02928,-0.50028 2.06643,-1.26785 2.99148,-2.43516 0.88261,-1.11376 1.66004,-2.58838 2.22864,-4.52979 0.5482,-1.87174 0.9041,-4.18185 0.9754,-7.036 0.0694,-2.77708 -0.1304,-6.0788 -0.68982,-10.01099 -1.09962,-7.72483 -3.20764,-13.54032 -5.86601,-18.2445 -2.60913,-4.61705 -5.64234,-7.978073 -8.41841,-10.934457 -1.39669,-1.487413 -2.65464,-2.796404 -3.79628,-4.133805 -1.13818,-1.333346 -2.08012,-2.604271 -2.81928,-3.936715 -0.74081,-1.335402 -1.27462,-2.727788 -1.58378,-4.285237 -0.31514,-1.587528 -0.40818,-3.405503 -0.20158,-5.568663 0.16895,-1.76903 0.51435,-3.516735 1.03104,-5.217039 -2.27141,0.345273 -4.40206,1.31538 -6.15385,2.80191 -1.13212,0.960701 -1.96084,2.015224 -2.53529,3.190779 -0.58492,1.196976 -0.83694,2.38031 -0.9633,3.430475 -0.12338,1.025296 -0.14345,2.136028 -0.16975,2.939604 -0.031,0.948444 -0.0723,1.737254 -0.18871,2.561058 -0.12121,0.857623 -0.31875,1.697323 -0.63591,2.576022 -0.35109,0.97273 -0.85737,2.011912 -1.56681,3.134237 -1.19839,1.89587 -2.87394,3.870853 -4.97941,5.94201 -0.14379,0.141439 -0.29335,0.287251 -0.44894,0.437397 -0.857643,-1.094403 -1.753973,-2.14481 -2.688236,-3.129913 -1.749623,-1.844833 -3.630587,-3.459684 -5.653834,-4.727932 -1.849214,-1.159157 -3.787265,-2.009829 -5.81556,-2.496101 -1.905116,-0.456742 -3.809398,-0.572809 -5.709556,-0.383262 -1.809772,0.180532 -3.564499,0.632722 -5.274704,1.279766 -1.656495,0.626722 -3.271436,1.436258 -4.857514,2.358327 -3.087483,1.794914 -6.156734,4.073124 -9.211463,6.312404 -2.527807,1.853019 -5.063781,3.694871 -7.607847,5.525503 2.987455,-0.67679 5.986241,-1.302551 8.99505,-1.877008 2.645537,-0.505099 4.953783,-0.904609 7.004249,-1.188731 2.077151,-0.287821 3.865745,-0.45376 5.448411,-0.493386 1.619447,-0.04055 3.015131,0.05153 4.265693,0.277798 1.298,0.234848 2.450861,0.616543 3.526272,1.15164 1.139341,0.566907 2.190922,1.306231 3.206262,2.209615 1.098061,0.976984 2.143333,2.137534 3.164148,3.423554 2.411977,3.03859 5.145818,7.43017 7.185276,10.80197 -1.775379,-2.9352 -4.855347,-8.29737 -6.738712,-11.1268 -0.915026,-1.37468 -1.864322,-2.676778 -2.88115,-3.824604 -0.942278,-1.063673 -1.963923,-2.020468 -3.13345,-2.829686 -1.110731,-0.768536 -2.348795,-1.400314 -3.787037,-1.880308 -1.383457,-0.461711 -2.928663,-0.775414 -4.700359,-0.948272 -1.726636,-0.168462 -3.655607,-0.202065 -5.849569,-0.115068 -2.164288,0.08582 -4.579443,0.288676 -7.304808,0.592492 l 1.387204,3.648494 c 3.368282,-1.937603 6.425955,-3.699694 9.407491,-4.978233 1.499932,-0.643199 2.906301,-1.13036 4.245065,-1.447263 1.376497,-0.325836 2.637043,-0.460927 3.814851,-0.420896 1.222617,0.04155 2.362733,0.272027 3.460644,0.679837 1.172144,0.435382 2.341566,1.090237 3.528985,1.989589 1.312169,0.99384 2.629079,2.273669 3.958727,3.839184 1.538313,1.811197 3.023041,3.921582 4.454281,6.217774 0.79866,1.28133 1.559193,2.58602 2.280599,3.91238 1.321491,-0.94742 2.613461,-1.93535 3.874071,-2.96238 1.77639,-1.44725 3.1951,-2.73157 4.334,-3.851897 2.42186,-2.382383 4.57617,-4.961867 6.15103,-7.704823 0.95595,-1.664992 1.66492,-3.330532 2.12769,-5.012911 0.42096,-1.530395 0.61055,-2.972461 0.65295,-4.347482 0.0391,-1.26782 -0.0492,-2.403057 -0.1479,-3.383931 -0.10163,-1.010005 -0.18186,-1.604449 -0.21935,-2.272012 -0.0305,-0.543475 -0.0172,-0.960016 0.0543,-1.292905 0.0702,-0.327007 0.22979,-0.745511 0.70704,-1.289505 l -5.12281,-2.415129 c -0.10032,2.706377 0.17015,5.116301 0.78363,7.303799 0.60351,2.151939 1.51695,4.011065 2.64259,5.685532 1.10426,1.642641 2.39805,3.085895 3.7606,4.440659 1.34018,1.332521 2.81247,2.641822 4.24946,3.958475 2.9088,2.665216 5.89731,5.562024 8.52001,9.62802 2.67357,4.14484 4.9502,9.48747 6.28399,16.87719 0.68579,3.80146 1.01476,6.96512 1.08382,9.60422 0.071,2.71166 -0.13233,4.87519 -0.50821,6.60965 -0.38903,1.79513 -0.9669,3.14911 -1.63599,4.18154 -0.70062,1.08108 -1.52095,1.83965 -2.37796,2.37709 -0.91257,0.57229 -1.88228,0.90307 -2.81319,1.08799 -1.00543,0.19973 -1.98339,0.23254 -2.81849,0.20365 -0.92094,-0.0319 -1.74999,-0.14294 -2.31742,-0.22584 -0.33118,-0.0484 -0.60245,-0.0915 -0.81575,-0.12121 -0.11537,-0.0161 -0.21276,-0.0283 -0.29557,-0.0363 -0.0878,-0.008 -0.15714,-0.0121 -0.21104,-0.0107 z"
       id="path865"
       inkscape:path-effect="#path-effect867"
       inkscape:original-d="m 124.62908,143.06312 c 1.77894,-0.0454 18.8984,6.71996 13.9726,-23.87344 -4.9258,-30.593399 -25.70449,-27.819315 -24.46281,-47.498526 -6.32079,5.9206 5.39778,11.830303 -14.235385,28.188364 -13.58178,-21.196142 -24.734867,-13.597157 -37.456326,-5.313191 21.387983,-3.220685 23.094644,-0.0338 34.097698,18.157353"
       sodipodi:nodetypes="czcccc" />
  </g>
  <g
     inkscape:groupmode="layer"
     id="layer2"
     inkscape:label="Layer 2" />
</svg>
