<?xml version="1.0" encoding="UTF-8" standalone="no"?>
<svg
   xmlns:dc="http://purl.org/dc/elements/1.1/"
   xmlns:cc="http://creativecommons.org/ns#"
   xmlns:rdf="http://www.w3.org/1999/02/22-rdf-syntax-ns#"
   xmlns:svg="http://www.w3.org/2000/svg"
   xmlns="http://www.w3.org/2000/svg"
   xmlns:xlink="http://www.w3.org/1999/xlink"
   xmlns:sodipodi="http://sodipodi.sourceforge.net/DTD/sodipodi-0.dtd"
   xmlns:inkscape="http://www.inkscape.org/namespaces/inkscape"
   width="210mm"
   height="297mm"
   viewBox="0 0 210 297"
   version="1.1"
   id="svg8"
   sodipodi:docname="Manaverse3.svg"
   inkscape:version="1.0.1 (3bc2e813f5, 2020-09-07)">
  <defs
     id="defs2">
    <linearGradient
       inkscape:collect="always"
       id="linearGradient937">
      <stop
         style="stop-color:#4875e6;stop-opacity:1;"
         offset="0"
         id="stop933" />
      <stop
         style="stop-color:#ff5050;stop-opacity:1"
         offset="1"
         id="stop935" />
    </linearGradient>
    <inkscape:path-effect
       effect="powerstroke"
       id="path-effect931"
       is_visible="true"
       lpeversion="1"
       offset_points="2.9218323,4.1913499"
       sort_points="true"
       interpolator_type="CubicBezierJohan"
       interpolator_beta="0.2"
       start_linecap_type="zerowidth"
       linejoin_type="extrp_arc"
       miter_limit="4"
       scale_width="1"
       end_linecap_type="zerowidth" />
    <inkscape:path-effect
       effect="powerstroke"
       id="path-effect912"
       is_visible="true"
       lpeversion="1"
       offset_points="2.9218323,4.1913499"
       sort_points="true"
       interpolator_type="CubicBezierJohan"
       interpolator_beta="0.2"
       start_linecap_type="zerowidth"
       linejoin_type="extrp_arc"
       miter_limit="4"
       scale_width="1"
       end_linecap_type="zerowidth" />
    <linearGradient
       inkscape:collect="always"
       id="linearGradient873">
      <stop
         style="stop-color:#ffe060;stop-opacity:1"
         offset="0"
         id="stop869" />
      <stop
         style="stop-color:#f2fc00;stop-opacity:0.44606414"
         offset="1"
         id="stop871" />
    </linearGradient>
    <inkscape:path-effect
       effect="powerstroke"
       id="path-effect867"
       is_visible="true"
       lpeversion="1"
       offset_points="2.9218323,4.1913499"
       sort_points="true"
       interpolator_type="CubicBezierJohan"
       interpolator_beta="0.2"
       start_linecap_type="zerowidth"
       linejoin_type="extrp_arc"
       miter_limit="4"
       scale_width="1"
       end_linecap_type="zerowidth" />
    <inkscape:path-effect
       effect="powerstroke"
       id="path-effect863"
       is_visible="true"
       lpeversion="1"
       offset_points="0,5.72807"
       sort_points="true"
       interpolator_type="CubicBezierJohan"
       interpolator_beta="0.2"
       start_linecap_type="zerowidth"
       linejoin_type="extrp_arc"
       miter_limit="4"
       scale_width="1"
       end_linecap_type="zerowidth" />
    <inkscape:path-effect
       effect="powerstroke"
       id="path-effect859"
       is_visible="true"
       lpeversion="1"
       offset_points="0,5.72807"
       sort_points="true"
       interpolator_type="CubicBezierJohan"
       interpolator_beta="0.2"
       start_linecap_type="zerowidth"
       linejoin_type="extrp_arc"
       miter_limit="4"
       scale_width="1"
       end_linecap_type="zerowidth" />
    <inkscape:path-effect
       effect="powerstroke"
       id="path-effect855"
       is_visible="true"
       lpeversion="1"
       offset_points="0,5.72807"
       sort_points="true"
       interpolator_type="CubicBezierJohan"
       interpolator_beta="0.2"
       start_linecap_type="zerowidth"
       linejoin_type="extrp_arc"
       miter_limit="4"
       scale_width="1"
       end_linecap_type="zerowidth" />
    <inkscape:path-effect
       effect="powerstroke"
       id="path-effect851"
       is_visible="true"
       lpeversion="1"
       offset_points="0,5.72807"
       sort_points="true"
       interpolator_type="CubicBezierJohan"
       interpolator_beta="0.2"
       start_linecap_type="zerowidth"
       linejoin_type="extrp_arc"
       miter_limit="4"
       scale_width="1"
       end_linecap_type="zerowidth" />
    <inkscape:path-effect
       effect="powerstroke"
       id="path-effect843"
       is_visible="true"
       lpeversion="1"
       offset_points="0,5.72807"
       sort_points="true"
       interpolator_type="CubicBezierJohan"
       interpolator_beta="0.2"
       start_linecap_type="zerowidth"
       linejoin_type="extrp_arc"
       miter_limit="4"
       scale_width="1"
       end_linecap_type="zerowidth" />
    <rect
       x="39.22995"
       y="73.844612"
       width="161.53509"
       height="173.07331"
       id="rect835" />
    <linearGradient
       inkscape:collect="always"
       xlink:href="#linearGradient873"
       id="linearGradient879"
       x1="101.59774"
       y1="108.00024"
       x2="104.38918"
       y2="32.132378"
       gradientUnits="userSpaceOnUse" />
    <radialGradient
       inkscape:collect="always"
       xlink:href="#linearGradient937"
       id="radialGradient941"
       cx="31.691263"
       cy="117.97118"
       fx="31.691263"
       fy="117.97118"
       r="31.9278"
       gradientTransform="matrix(1.0387585,-0.82901661,0.61188551,0.766693,-42.940851,62.194515)"
       gradientUnits="userSpaceOnUse" />
  </defs>
  <sodipodi:namedview
     id="base"
     pagecolor="#ffffff"
     bordercolor="#666666"
     borderopacity="1.0"
     inkscape:pageopacity="0.0"
     inkscape:pageshadow="2"
     inkscape:zoom="1.9275568"
     inkscape:cx="376.76849"
     inkscape:cy="400.39382"
     inkscape:document-units="mm"
     inkscape:current-layer="layer1"
     inkscape:document-rotation="0"
     showgrid="false"
     inkscape:window-width="1920"
     inkscape:window-height="1017"
     inkscape:window-x="-8"
     inkscape:window-y="-8"
     inkscape:window-maximized="1" />
  <metadata
     id="metadata5">
    <rdf:RDF>
      <cc:Work
         rdf:about="">
        <dc:format>image/svg+xml</dc:format>
        <dc:type
           rdf:resource="http://purl.org/dc/dcmitype/StillImage" />
        <dc:title></dc:title>
      </cc:Work>
    </rdf:RDF>
  </metadata>
  <g
     inkscape:label="Layer 1"
     inkscape:groupmode="layer"
     id="layer1">
    <text
       xml:space="preserve"
       id="text833"
       style="font-style:normal;font-variant:normal;font-weight:normal;font-stretch:normal;font-size:50.8px;line-height:1.25;font-family:'Cinzel Decorative';-inkscape-font-specification:'Cinzel Decorative';white-space:pre;shape-inside:url(#rect835);display:inline;fill:url(#radialGradient941);fill-opacity:1;stroke:none;"
       transform="translate(35.983546,12.836164)"><tspan
         x="39.230469"
         y="120.83375"><tspan
           style="font-style:normal;font-variant:normal;font-weight:normal;font-stretch:normal;font-family:'Cinzel Decorative';-inkscape-font-specification:'Cinzel Decorative';fill:url(#radialGradient941);fill-opacity:1">M</tspan></tspan></text>
    <path
       style="fill:#f35252;fill-opacity:1;fill-rule:nonzero;stroke:none;stroke-width:0.264583px;stroke-linecap:butt;stroke-linejoin:miter;stroke-opacity:1"
       d="m 115.12925,134.10389 c 0.13269,0.50834 0.35119,1.0698 0.67554,1.68074 0.29152,0.54912 0.6671,1.13519 1.13491,1.74756 0.83255,1.08981 1.95955,2.26368 3.35744,3.38583 1.24392,0.99857 2.71089,1.96095 4.3054,2.71813 1.46539,0.69587 3.06986,1.23223 4.68051,1.41851 0.77036,0.0891 1.55116,0.0991 2.32238,0.002 0.75221,-0.0943 1.49906,-0.29033 2.21865,-0.6169 0.704,-0.31949 1.3786,-0.76266 1.99964,-1.35204 0.60842,-0.5774 1.1599,-1.28992 1.63525,-2.1525 0.92571,-1.67977 1.55685,-3.91415 1.77244,-6.82514 0.2095,-2.82886 0.0268,-6.31205 -0.67584,-10.57446 -1.37071,-8.31629 -3.66852,-14.38999 -6.47482,-18.98825 -2.76629,-4.53271 -5.91986,-7.459127 -8.85075,-9.690304 -1.4323,-1.090357 -2.8252,-2.023609 -3.97247,-2.827323 -1.19782,-0.839123 -2.10475,-1.521561 -2.772,-2.19732 -0.32642,-0.330573 -0.56615,-0.631292 -0.74,-0.912158 -0.173,-0.279486 -0.27884,-0.536088 -0.34391,-0.785366 -0.0646,-0.24736 -0.0981,-0.523631 -0.0958,-0.845329 0.002,-0.330175 0.0431,-0.738654 0.15102,-1.245649 l -6.06071,-0.340372 c 0.0137,2.892687 -0.0198,5.183068 -0.10421,7.044013 -0.0873,1.924502 -0.22725,3.342307 -0.41133,4.430434 -0.19116,1.129958 -0.4214,1.850354 -0.65308,2.360716 -0.23146,0.509868 -0.50234,0.887908 -0.81092,1.263598 -0.36611,0.44573 -0.80778,0.91245 -1.44442,1.59322 -0.69652,0.74479 -1.47718,1.59093 -2.36089,2.66403 -1.47809,1.79489 -2.92217,3.83966 -4.388782,6.28092 -0.671596,1.11792 -1.455518,2.51143 -2.34463,4.23787 l 7.163362,-0.29146 c -3.04986,-4.64306 -6.706863,-9.38005 -10.867646,-13.38113 -3.402953,-3.272337 -7.050328,-5.962825 -10.873664,-7.748874 -3.494153,-1.632273 -7.020707,-2.453551 -10.475589,-2.35806 -3.331596,0.09208 -6.410022,1.03155 -9.180737,2.654477 -1.569377,0.919252 -3.011322,2.040498 -4.288895,3.335015 1.621046,0.06924 3.238286,0.20938 4.847079,0.420019 11.278291,1.476666 20.428843,6.199203 26.399085,10.049393 8.394339,5.41348 10.242324,7.89532 10.242324,7.89532 0,0 -1.333351,-2.84309 -9.329874,-9.16922 C 84.783843,102.4516 75.771054,96.738539 63.872182,94.271102 l 0.558167,3.755031 c 2.393756,-0.961326 4.804696,-1.267673 7.213365,-0.980326 2.498131,0.29802 5.046364,1.240381 7.639828,2.82226 2.863005,1.746283 5.702183,4.223953 8.490898,7.302593 3.41897,3.77441 6.519941,8.18211 9.273885,12.59747 1.310572,2.10123 2.563752,4.23771 3.758155,6.40708 1.06279,-2.26886 2.19846,-4.50287 3.40523,-6.69853 0.85927,-1.5634 1.60171,-2.82884 2.1965,-3.81888 1.32142,-2.19953 2.48858,-3.93418 3.66883,-5.53327 0.75899,-1.02834 1.26893,-1.66622 1.979,-2.59396 0.55259,-0.72197 1.19927,-1.58584 1.74745,-2.51925 0.54263,-0.92395 1.01046,-1.94446 1.35168,-3.18293 0.31804,-1.15435 0.50424,-2.414964 0.59899,-3.899489 0.0904,-1.416079 0.10026,-3.08208 0.0489,-5.123037 -0.0499,-1.982604 -0.15861,-4.358984 -0.317,-7.282313 -0.17675,-3.261927 -0.37832,-6.522461 -0.6047,-9.781319 -3.07707,2.229186 -5.06085,5.661864 -5.45601,9.440947 -0.0974,0.931303 -0.0925,1.834409 0.032,2.701635 0.12408,0.864498 0.36356,1.672079 0.7157,2.423577 0.34823,0.743138 0.78956,1.395217 1.29092,1.974012 0.49434,0.570682 1.04298,1.065521 1.6109,1.506522 1.10145,0.855297 2.38918,1.591526 3.64915,2.293354 1.29231,0.719846 2.62496,1.440193 4.02625,2.326688 2.76478,1.749063 5.74414,4.117223 8.44815,8.010683 2.77069,3.98948 5.2357,9.56076 6.84042,17.57491 0.82024,4.0959 1.12441,7.38407 1.06355,10.01039 -0.0625,2.69845 -0.50879,4.6901 -1.17609,6.15406 -0.34175,0.74976 -0.74401,1.36592 -1.18956,1.86981 -0.45469,0.51423 -0.96136,0.91931 -1.50823,1.2306 -0.56054,0.31908 -1.16776,0.54207 -1.80932,0.68002 -0.65908,0.14172 -1.35197,0.19314 -2.06272,0.16752 -1.49269,-0.0538 -3.04197,-0.44593 -4.5092,-1.03101 -1.59017,-0.6341 -3.079,-1.49143 -4.35717,-2.41159 -1.43439,-1.03263 -2.60532,-2.14312 -3.47427,-3.19273 -0.48823,-0.58973 -0.88191,-1.16048 -1.18693,-1.70023 -0.33945,-0.60068 -0.5669,-1.1588 -0.69968,-1.66751 z"
       id="path865-5-3"
       inkscape:path-effect="#path-effect931"
       inkscape:original-d="m 115.12925,134.10389 c 2.2602,8.6591 28.19188,22.72556 22.16797,-10.33859 -6.02391,-33.06414 -26.50957,-26.570876 -24.8561,-38.15154 0.67965,22.94128 -1.59707,12.536111 -11.89633,31.91397 C 86.963015,96.331588 73.78769,91.113023 63.536976,96.239928 85.849007,100.03859 99.843197,116.15347 99.843197,116.15347"
       sodipodi:nodetypes="czcccc" />
    <path
       style="display:inline;fill:#f8b342;fill-opacity:0.998542;fill-rule:nonzero;stroke:none;stroke-width:0.264583px;stroke-linecap:butt;stroke-linejoin:miter;stroke-opacity:1"
       d="m 118.37155,138.81299 c 0.0288,0.088 0.0777,0.18822 0.14963,0.30097 0.0677,0.10609 0.15572,0.22324 0.26604,0.35107 0.20446,0.2369 0.48612,0.5111 0.85124,0.81351 0.64535,0.53453 1.57457,1.17459 2.74349,1.79307 1.03982,0.55018 2.30174,1.09909 3.67939,1.49208 1.26767,0.36162 2.67907,0.60382 4.10306,0.55528 0.68199,-0.0232 1.37573,-0.11351 2.06241,-0.29469 0.66966,-0.17668 1.33544,-0.44051 1.97761,-0.81569 1.24715,-0.72864 2.38892,-1.8687 3.27257,-3.55933 0.8497,-1.62567 1.4524,-3.74414 1.69358,-6.46918 0.23459,-2.65061 0.12854,-5.88927 -0.43348,-9.83746 -1.09432,-7.69077 -2.97037,-13.51594 -5.33723,-18.17172 -2.33082,-4.5849 -5.05344,-7.872948 -7.72089,-10.658294 -1.3017,-1.359231 -2.62545,-2.633449 -3.7814,-3.786808 -1.19463,-1.191942 -2.24347,-2.286547 -3.15905,-3.422361 -0.91888,-1.139918 -1.66736,-2.278345 -2.25354,-3.513513 -0.59308,-1.249699 -1.03379,-2.628191 -1.29609,-4.231828 -0.49248,-3.010889 -0.23791,-6.096653 0.74133,-8.986129 -3.25516,2.057871 -5.63912,5.241748 -6.69737,8.944589 -0.3348,1.17149 -0.49326,2.24351 -0.57466,3.221178 -0.0803,0.964335 -0.0889,1.922447 -0.10549,2.63863 -0.0189,0.813477 -0.0481,1.426015 -0.13144,2.030593 -0.0838,0.607785 -0.21853,1.162157 -0.42319,1.730358 -0.22039,0.611873 -0.5421,1.293791 -1.01643,2.075237 -0.52989,0.872977 -1.23631,1.846991 -2.16405,2.947777 -1.54759,1.836242 -3.53061,3.811671 -5.804702,5.887402 -0.182552,0.166629 -0.372594,0.339299 -0.570418,0.518059 -2.35625,-3.135011 -4.928085,-5.96954 -7.694642,-8.126079 -1.648056,-1.284664 -3.361604,-2.327864 -5.15155,-3.075476 -1.68503,-0.703791 -3.388383,-1.125002 -5.115685,-1.26744 -1.64912,-0.135989 -3.253164,-0.0127 -4.824775,0.30538 -1.51904,0.307444 -2.990787,0.793221 -4.432722,1.385243 -2.786483,1.144059 -5.601982,2.749377 -8.44574,4.302799 -2.429176,1.326953 -4.877073,2.619342 -7.342952,3.876777 2.739803,0.191003 5.490338,0.167783 8.226526,-0.06945 1.58116,-0.137088 2.976995,-0.330447 4.179777,-0.496099 1.241085,-0.170927 2.26804,-0.310799 3.218743,-0.366886 0.958568,-0.05655 1.80812,-0.02484 2.625867,0.150402 0.852007,0.182586 1.694328,0.526845 2.579582,1.112814 0.939497,0.621875 1.899292,1.498316 2.912386,2.666553 1.095184,1.2629 2.22327,2.83343 3.399042,4.68188 2.910356,4.57539 6.194428,11.02165 9.052781,17.02072 -2.819596,-5.91772 -5.99209,-12.60908 -8.577718,-17.30223 -1.060485,-1.92488 -2.075015,-3.61777 -3.061574,-5.032 -0.910798,-1.305623 -1.810562,-2.393502 -2.750798,-3.26231 -0.896299,-0.828209 -1.828411,-1.457371 -2.865434,-1.91611 -0.998921,-0.441885 -2.04503,-0.703864 -3.180213,-0.863629 -1.0977,-0.154489 -2.267827,-0.211817 -3.527665,-0.25108 -1.25868,-0.03923 -2.580173,-0.06003 -4.086198,-0.135511 l 0.883575,3.807329 c 3.160532,-1.233616 5.849782,-2.307085 8.423794,-2.944929 1.285094,-0.318448 2.458504,-0.505346 3.560015,-0.55408 1.128335,-0.04992 2.157334,0.04637 3.131879,0.279579 1.013206,0.242461 2.001895,0.6414 2.998826,1.213149 1.069406,0.613314 2.172003,1.440666 3.314789,2.504379 2.775597,2.583543 5.543335,6.328213 8.313218,10.770003 0.808765,1.29693 1.590945,2.61025 2.34605,3.93914 1.287339,-0.97349 2.557084,-1.97004 3.808616,-2.98915 1.73835,-1.41552 3.15047,-2.6376 4.30392,-3.69044 2.4295,-2.21759 4.73105,-4.57625 6.55531,-6.933711 1.10716,-1.430769 2.04209,-2.863098 2.7651,-4.306431 0.65964,-1.316829 1.12852,-2.61363 1.41031,-3.914417 0.26336,-1.215767 0.34469,-2.347451 0.31798,-3.422335 -0.0249,-1.000774 -0.14256,-1.910771 -0.25898,-2.71274 -0.11455,-0.789092 -0.22292,-1.446186 -0.28489,-2.122946 -0.0579,-0.632328 -0.0741,-1.278748 0.0109,-1.98624 l -5.95604,-0.04154 c 0.51827,2.145759 1.29278,4.013083 2.28053,5.684591 0.96692,1.636256 2.10752,3.033626 3.33913,4.300435 1.20871,1.243265 2.51772,2.373054 3.83313,3.472562 1.32518,1.107661 2.64529,2.175524 3.99374,3.372535 2.66496,2.365665 5.34736,5.158557 7.71207,9.187437 2.41883,4.12108 4.49053,9.51484 5.82898,16.93302 0.68322,3.78534 0.91562,6.83824 0.83162,9.29816 -0.0863,2.52654 -0.50627,4.42894 -1.11669,5.86166 -0.63006,1.47882 -1.47894,2.49548 -2.43834,3.18788 -0.49947,0.36046 -1.03622,0.63825 -1.5985,0.84563 -0.57761,0.21303 -1.18179,0.3516 -1.79834,0.42865 -1.29356,0.16166 -2.63175,0.0515 -3.88502,-0.20147 -1.35618,-0.27378 -2.62405,-0.71645 -3.6852,-1.18495 -1.19024,-0.5255 -2.15139,-1.09553 -2.8229,-1.58314 -0.37995,-0.2759 -0.67522,-0.53058 -0.89053,-0.75517 -0.11605,-0.12105 -0.20899,-0.23348 -0.28025,-0.33664 -0.0758,-0.10966 -0.12694,-0.20872 -0.15579,-0.29688 z"
       id="path865-5"
       inkscape:path-effect="#path-effect912"
       inkscape:original-d="m 118.37155,138.81299 c 0.95393,2.91497 24.02854,15.12635 19.10274,-15.46705 -4.9258,-30.593405 -22.11713,-28.218039 -25.26789,-43.367552 -1.65383,7.430499 5.12884,10.20263 -14.504331,26.560692 C 84.120288,85.342937 75.518096,90.162107 63.620219,95.700803 75.912009,95.450188 77.010101,91.784787 91.629108,122.46693"
       sodipodi:nodetypes="czcccc" />
    <path
       style="fill:url(#linearGradient879);fill-opacity:1;fill-rule:nonzero;stroke:none;stroke-width:0.264583px;stroke-linecap:butt;stroke-linejoin:miter;stroke-opacity:1"
       d="m 124.62908,143.06312 c 0.0539,-0.001 0.12325,0.005 0.21012,0.018 0.0819,0.0126 0.17828,0.0314 0.29166,0.0561 0.2193,0.0478 0.46652,0.10938 0.8022,0.18967 0.55608,0.133 1.38045,0.32403 2.30904,0.44788 0.83964,0.11199 1.85498,0.18247 2.93186,0.0839 0.99562,-0.0911 2.09573,-0.33102 3.18482,-0.86037 1.02928,-0.50028 2.06643,-1.26785 2.99148,-2.43516 0.88261,-1.11376 1.66004,-2.58838 2.22864,-4.52979 0.5482,-1.87174 0.9041,-4.18185 0.9754,-7.036 0.0694,-2.77708 -0.1304,-6.0788 -0.68982,-10.01099 -1.09962,-7.72483 -3.20764,-13.54032 -5.86601,-18.2445 -2.60913,-4.61705 -5.64234,-7.978073 -8.41841,-10.934457 -1.39669,-1.487413 -2.65464,-2.796404 -3.79628,-4.133805 -1.13818,-1.333346 -2.08012,-2.604271 -2.81928,-3.936715 -0.74081,-1.335402 -1.27462,-2.727788 -1.58378,-4.285237 -0.31514,-1.587528 -0.40818,-3.405503 -0.20158,-5.568663 0.16895,-1.76903 0.51435,-3.516735 1.03104,-5.217039 -2.27141,0.345273 -4.40206,1.31538 -6.15385,2.80191 -1.13212,0.960701 -1.96084,2.015224 -2.53529,3.190779 -0.58492,1.196976 -0.83694,2.38031 -0.9633,3.430475 -0.12338,1.025296 -0.14345,2.136028 -0.16975,2.939604 -0.031,0.948444 -0.0723,1.737254 -0.18871,2.561058 -0.12121,0.857623 -0.31875,1.697323 -0.63591,2.576022 -0.35109,0.97273 -0.85737,2.011912 -1.56681,3.134237 -1.19839,1.89587 -2.87394,3.870853 -4.97941,5.94201 -0.14379,0.141439 -0.29335,0.287251 -0.44894,0.437397 -0.857643,-1.094403 -1.753973,-2.14481 -2.688236,-3.129913 -1.749623,-1.844833 -3.630587,-3.459684 -5.653834,-4.727932 -1.849214,-1.159157 -3.787265,-2.009829 -5.81556,-2.496101 -1.905116,-0.456742 -3.809398,-0.572809 -5.709556,-0.383262 -1.809772,0.180532 -3.564499,0.632722 -5.274704,1.279766 -1.656495,0.626722 -3.271436,1.436258 -4.857514,2.358327 -3.087483,1.794914 -6.156734,4.073124 -9.211463,6.312404 -2.527807,1.853019 -5.063781,3.694871 -7.607847,5.525503 2.987455,-0.67679 5.986241,-1.302551 8.99505,-1.877008 2.645537,-0.505099 4.953783,-0.904609 7.004249,-1.188731 2.077151,-0.287821 3.865745,-0.45376 5.448411,-0.493386 1.619447,-0.04055 3.015131,0.05153 4.265693,0.277798 1.298,0.234848 2.450861,0.616543 3.526272,1.15164 1.139341,0.566907 2.190922,1.306231 3.206262,2.209615 1.098061,0.976984 2.143333,2.137534 3.164148,3.423554 2.411977,3.03859 5.145818,7.43017 7.185276,10.80197 -1.775379,-2.9352 -4.855347,-8.29737 -6.738712,-11.1268 -0.915026,-1.37468 -1.864322,-2.676778 -2.88115,-3.824604 -0.942278,-1.063673 -1.963923,-2.020468 -3.13345,-2.829686 -1.110731,-0.768536 -2.348795,-1.400314 -3.787037,-1.880308 -1.383457,-0.461711 -2.928663,-0.775414 -4.700359,-0.948272 -1.726636,-0.168462 -3.655607,-0.202065 -5.849569,-0.115068 -2.164288,0.08582 -4.579443,0.288676 -7.304808,0.592492 l 1.387204,3.648494 c 3.368282,-1.937603 6.425955,-3.699694 9.407491,-4.978233 1.499932,-0.643199 2.906301,-1.13036 4.245065,-1.447263 1.376497,-0.325836 2.637043,-0.460927 3.814851,-0.420896 1.222617,0.04155 2.362733,0.272027 3.460644,0.679837 1.172144,0.435382 2.341566,1.090237 3.528985,1.989589 1.312169,0.99384 2.629079,2.273669 3.958727,3.839184 1.538313,1.811197 3.023041,3.921582 4.454281,6.217774 0.79866,1.28133 1.559193,2.58602 2.280599,3.91238 1.321491,-0.94742 2.613461,-1.93535 3.874071,-2.96238 1.77639,-1.44725 3.1951,-2.73157 4.334,-3.851897 2.42186,-2.382383 4.57617,-4.961867 6.15103,-7.704823 0.95595,-1.664992 1.66492,-3.330532 2.12769,-5.012911 0.42096,-1.530395 0.61055,-2.972461 0.65295,-4.347482 0.0391,-1.26782 -0.0492,-2.403057 -0.1479,-3.383931 -0.10163,-1.010005 -0.18186,-1.604449 -0.21935,-2.272012 -0.0305,-0.543475 -0.0172,-0.960016 0.0543,-1.292905 0.0702,-0.327007 0.22979,-0.745511 0.70704,-1.289505 l -5.12281,-2.415129 c -0.10032,2.706377 0.17015,5.116301 0.78363,7.303799 0.60351,2.151939 1.51695,4.011065 2.64259,5.685532 1.10426,1.642641 2.39805,3.085895 3.7606,4.440659 1.34018,1.332521 2.81247,2.641822 4.24946,3.958475 2.9088,2.665216 5.89731,5.562024 8.52001,9.62802 2.67357,4.14484 4.9502,9.48747 6.28399,16.87719 0.68579,3.80146 1.01476,6.96512 1.08382,9.60422 0.071,2.71166 -0.13233,4.87519 -0.50821,6.60965 -0.38903,1.79513 -0.9669,3.14911 -1.63599,4.18154 -0.70062,1.08108 -1.52095,1.83965 -2.37796,2.37709 -0.91257,0.57229 -1.88228,0.90307 -2.81319,1.08799 -1.00543,0.19973 -1.98339,0.23254 -2.81849,0.20365 -0.92094,-0.0319 -1.74999,-0.14294 -2.31742,-0.22584 -0.33118,-0.0484 -0.60245,-0.0915 -0.81575,-0.12121 -0.11537,-0.0161 -0.21276,-0.0283 -0.29557,-0.0363 -0.0878,-0.008 -0.15714,-0.0121 -0.21104,-0.0107 z"
       id="path865"
       inkscape:path-effect="#path-effect867"
       inkscape:original-d="m 124.62908,143.06312 c 1.77894,-0.0454 18.8984,6.71996 13.9726,-23.87344 -4.9258,-30.593399 -25.70449,-27.819315 -24.46281,-47.498526 -6.32079,5.9206 5.39778,11.830303 -14.235385,28.188364 -13.58178,-21.196142 -24.734867,-13.597157 -37.456326,-5.313191 21.387983,-3.220685 23.094644,-0.0338 34.097698,18.157353"
       sodipodi:nodetypes="czcccc" />
  </g>
</svg>
