<?xml version="1.0" encoding="UTF-8" standalone="no"?>
<svg
   xmlns:dc="http://purl.org/dc/elements/1.1/"
   xmlns:cc="http://creativecommons.org/ns#"
   xmlns:rdf="http://www.w3.org/1999/02/22-rdf-syntax-ns#"
   xmlns:svg="http://www.w3.org/2000/svg"
   xmlns="http://www.w3.org/2000/svg"
   xmlns:sodipodi="http://sodipodi.sourceforge.net/DTD/sodipodi-0.dtd"
   xmlns:inkscape="http://www.inkscape.org/namespaces/inkscape"
   width="210mm"
   height="297mm"
   viewBox="0 0 210 297"
   version="1.1"
   id="svg8"
   sodipodi:docname="Manaverse6.svg"
   inkscape:version="1.0.1 (3bc2e813f5, 2020-09-07)">
  <defs
     id="defs2">
    <inkscape:path-effect
       effect="powerstroke"
       id="path-effect885"
       is_visible="true"
       lpeversion="1"
       offset_points="2.4348601,4.1913499"
       sort_points="true"
       interpolator_type="CubicBezierJohan"
       interpolator_beta="0.2"
       start_linecap_type="zerowidth"
       linejoin_type="extrp_arc"
       miter_limit="4"
       scale_width="1"
       end_linecap_type="zerowidth" />
    <inkscape:path-effect
       effect="powerstroke"
       id="path-effect857"
       is_visible="true"
       lpeversion="1"
       offset_points="0,4.23738"
       sort_points="true"
       interpolator_type="CubicBezierJohan"
       interpolator_beta="0.2"
       start_linecap_type="zerowidth"
       linejoin_type="extrp_arc"
       miter_limit="4"
       scale_width="1"
       end_linecap_type="zerowidth" />
    <inkscape:path-effect
       effect="powerstroke"
       id="path-effect931"
       is_visible="true"
       lpeversion="1"
       offset_points="2.9218323,4.1913499"
       sort_points="true"
       interpolator_type="CubicBezierJohan"
       interpolator_beta="0.2"
       start_linecap_type="zerowidth"
       linejoin_type="extrp_arc"
       miter_limit="4"
       scale_width="1"
       end_linecap_type="zerowidth" />
    <inkscape:path-effect
       effect="powerstroke"
       id="path-effect912"
       is_visible="true"
       lpeversion="1"
       offset_points="2.9218323,4.1913499"
       sort_points="true"
       interpolator_type="CubicBezierJohan"
       interpolator_beta="0.2"
       start_linecap_type="zerowidth"
       linejoin_type="extrp_arc"
       miter_limit="4"
       scale_width="1"
       end_linecap_type="zerowidth" />
    <inkscape:path-effect
       effect="powerstroke"
       id="path-effect867"
       is_visible="true"
       lpeversion="1"
       offset_points="2.9218321,4.1913499"
       sort_points="true"
       interpolator_type="CubicBezierJohan"
       interpolator_beta="0.2"
       start_linecap_type="zerowidth"
       linejoin_type="extrp_arc"
       miter_limit="4"
       scale_width="1"
       end_linecap_type="zerowidth" />
    <inkscape:path-effect
       effect="powerstroke"
       id="path-effect863"
       is_visible="true"
       lpeversion="1"
       offset_points="0,5.72807"
       sort_points="true"
       interpolator_type="CubicBezierJohan"
       interpolator_beta="0.2"
       start_linecap_type="zerowidth"
       linejoin_type="extrp_arc"
       miter_limit="4"
       scale_width="1"
       end_linecap_type="zerowidth" />
    <inkscape:path-effect
       effect="powerstroke"
       id="path-effect859"
       is_visible="true"
       lpeversion="1"
       offset_points="0,5.72807"
       sort_points="true"
       interpolator_type="CubicBezierJohan"
       interpolator_beta="0.2"
       start_linecap_type="zerowidth"
       linejoin_type="extrp_arc"
       miter_limit="4"
       scale_width="1"
       end_linecap_type="zerowidth" />
    <inkscape:path-effect
       effect="powerstroke"
       id="path-effect855"
       is_visible="true"
       lpeversion="1"
       offset_points="0,5.72807"
       sort_points="true"
       interpolator_type="CubicBezierJohan"
       interpolator_beta="0.2"
       start_linecap_type="zerowidth"
       linejoin_type="extrp_arc"
       miter_limit="4"
       scale_width="1"
       end_linecap_type="zerowidth" />
    <inkscape:path-effect
       effect="powerstroke"
       id="path-effect851"
       is_visible="true"
       lpeversion="1"
       offset_points="0,5.72807"
       sort_points="true"
       interpolator_type="CubicBezierJohan"
       interpolator_beta="0.2"
       start_linecap_type="zerowidth"
       linejoin_type="extrp_arc"
       miter_limit="4"
       scale_width="1"
       end_linecap_type="zerowidth" />
    <inkscape:path-effect
       effect="powerstroke"
       id="path-effect843"
       is_visible="true"
       lpeversion="1"
       offset_points="0,5.72807"
       sort_points="true"
       interpolator_type="CubicBezierJohan"
       interpolator_beta="0.2"
       start_linecap_type="zerowidth"
       linejoin_type="extrp_arc"
       miter_limit="4"
       scale_width="1"
       end_linecap_type="zerowidth" />
    <rect
       x="39.22995"
       y="73.844612"
       width="161.53509"
       height="173.07331"
       id="rect835" />
  </defs>
  <sodipodi:namedview
     id="base"
     pagecolor="#ffffff"
     bordercolor="#666666"
     borderopacity="1.0"
     inkscape:pageopacity="0.0"
     inkscape:pageshadow="2"
     inkscape:zoom="0.25"
     inkscape:cx="463.93504"
     inkscape:cy="472.9002"
     inkscape:document-units="mm"
     inkscape:current-layer="layer1"
     inkscape:document-rotation="0"
     showgrid="false"
     inkscape:window-width="1920"
     inkscape:window-height="1017"
     inkscape:window-x="-8"
     inkscape:window-y="-8"
     inkscape:window-maximized="1" />
  <metadata
     id="metadata5">
    <rdf:RDF>
      <cc:Work
         rdf:about="">
        <dc:format>image/svg+xml</dc:format>
        <dc:type
           rdf:resource="http://purl.org/dc/dcmitype/StillImage" />
        <dc:title></dc:title>
      </cc:Work>
    </rdf:RDF>
  </metadata>
  <g
     inkscape:label="Layer 1"
     inkscape:groupmode="layer"
     id="layer1"
     style="display:inline">
    <text
       xml:space="preserve"
       id="text833"
       style="font-style:normal;font-variant:normal;font-weight:normal;font-stretch:normal;font-size:50.8px;line-height:1.25;font-family:'Cinzel Decorative';-inkscape-font-specification:'Cinzel Decorative';white-space:pre;shape-inside:url(#rect835);display:inline;fill:#ff7f2a;fill-opacity:1;stroke:none;"
       transform="translate(35.983546,12.836164)"><tspan
         x="39.230469"
         y="120.83375"><tspan
           style="font-style:normal;font-variant:normal;font-weight:normal;font-stretch:normal;font-family:'Cinzel Decorative';-inkscape-font-specification:'Cinzel Decorative';fill:#ff7f2a;fill-opacity:1">M</tspan></tspan></text>
    <path
       style="display:inline;fill:#ffdd55;fill-opacity:1;fill-rule:nonzero;stroke:none;stroke-width:0.264583px;stroke-linecap:butt;stroke-linejoin:miter;stroke-opacity:1"
       d="m 124.62908,143.06312 c 0.0539,-0.001 0.12325,0.005 0.21012,0.018 0.0819,0.0126 0.17828,0.0314 0.29166,0.0561 0.2193,0.0478 0.46652,0.10938 0.8022,0.18967 0.55608,0.133 1.38045,0.32403 2.30904,0.44788 0.83964,0.11199 1.85498,0.18247 2.93186,0.0839 0.99562,-0.0911 2.09573,-0.33102 3.18482,-0.86037 1.02928,-0.50028 2.06643,-1.26785 2.99148,-2.43516 0.88261,-1.11376 1.66004,-2.58838 2.22864,-4.52979 0.5482,-1.87174 0.9041,-4.18185 0.9754,-7.036 0.0694,-2.77708 -0.1304,-6.0788 -0.68982,-10.01099 -1.09269,-7.6816 -2.85136,-13.77995 -4.91786,-18.87174 -2.02959,-5.000848 -4.28713,-8.864165 -6.30903,-12.193518 -1.0149,-1.671179 -1.92136,-3.129327 -2.72274,-4.54515 -0.801,-1.415136 -1.44185,-2.693841 -1.91412,-3.942329 -0.47408,-1.25325 -0.76611,-2.445645 -0.87841,-3.665356 -0.11374,-1.235524 -0.0474,-2.549301 0.243,-4.021567 0.4374,-2.217582 1.2923,-4.331822 2.51919,-6.230168 -2.80731,0.493813 -5.43422,1.720853 -7.61461,3.55681 -1.0467,0.881363 -1.89506,1.822971 -2.59484,2.832539 -0.71961,1.038161 -1.25254,2.106022 -1.67319,3.166732 -0.43335,1.092757 -0.75756,2.205611 -1.02792,3.260074 -0.2767,1.079208 -0.54213,2.284449 -0.78147,3.340972 -0.59044,2.60647 -1.15654,4.881187 -2.10562,7.552716 -0.79732,2.24437 -1.73715,4.387513 -2.81442,6.524431 -0.51387,1.019323 -1.13467,2.185791 -1.88849,3.487482 l 7.10641,-0.130423 c -0.5037,-0.754732 -1.16782,-1.623279 -1.99511,-2.641687 -0.73982,-0.910718 -1.60156,-1.93083 -2.61342,-3.115991 -1.67282,-1.959305 -4.07715,-4.737985 -6.31576,-7.475508 -2.089037,-2.554625 -4.294847,-5.385171 -6.175645,-8.175085 -1.785639,-2.648758 -3.230255,-5.190233 -4.054927,-7.418156 l -2.69318,-7.275862 -2.678057,6.939881 c -0.950976,2.464347 -2.320076,4.480115 -4.074497,6.360396 -1.757052,1.8831 -3.790505,3.521397 -6.072446,5.355861 -2.257905,1.815141 -4.625614,3.721329 -6.845982,6.045646 -2.280814,2.387593 -4.326176,5.133779 -5.981934,8.569805 -0.504923,1.047816 -0.954951,2.121208 -1.348259,3.215819 0.955739,-0.556976 1.92778,-1.085496 2.914842,-1.584863 2.496981,-1.263255 4.702902,-2.144048 6.667876,-2.717819 2.020694,-0.590042 3.791757,-0.856882 5.363982,-0.877553 1.629889,-0.02143 3.064052,0.221575 4.348983,0.659976 1.348246,0.460002 2.545516,1.14003 3.627943,1.970027 1.149358,0.881319 2.171893,1.934215 3.096218,3.067538 0.997473,1.22302 1.89592,2.5594 2.707271,3.8833 1.652594,2.69658 3.86644,7.01208 4.928136,8.98701 -1.368707,-2.54602 -2.846353,-5.79077 -4.67511,-9.13362 -0.746775,-1.36505 -1.578967,-2.77036 -2.512429,-4.078335 -0.864585,-1.211467 -1.845184,-2.381585 -2.982289,-3.401449 -1.072565,-0.961978 -2.303918,-1.808333 -3.7444,-2.436141 -1.37702,-0.600149 -2.945806,-1.000964 -4.752259,-1.113221 -1.740655,-0.108169 -3.693354,0.05202 -5.901209,0.552381 -1.126033,0.255189 -2.318025,0.598743 -3.582414,1.040159 1.251661,-1.634172 2.613515,-3.03367 4.048734,-4.286118 2.224101,-1.940869 4.582578,-3.496405 7.005904,-5.077981 2.376938,-1.5513 4.854574,-3.150779 7.086039,-5.098511 0.889502,-0.776401 1.743168,-1.610449 2.545627,-2.523501 0.602899,1.287509 1.278676,2.567774 1.987418,3.814754 1.817253,3.19732 3.972252,6.383078 5.949999,9.157624 2.108298,2.957695 4.428515,6.013345 5.924115,8.008326 0.93223,1.243494 1.67764,2.248623 2.30701,3.128783 0.71194,0.99562 1.17196,1.68846 1.46305,2.17626 1.40158,2.34877 1.94668,5.11038 1.54268,7.81554 2.0388,-2.51477 3.89797,-5.16999 5.56373,-7.94596 0.87375,-1.45608 1.5931,-2.77683 2.18717,-3.955246 1.23784,-2.455418 2.30048,-5.029542 3.13068,-7.730688 0.98347,-3.199857 1.47465,-6.01053 1.83597,-8.787772 0.15261,-1.173034 0.27381,-2.264581 0.40512,-3.248181 0.12509,-0.936948 0.25723,-1.759616 0.43348,-2.503242 0.16661,-0.702952 0.37443,-1.343203 0.66122,-1.941915 0.2776,-0.579519 0.65423,-1.173805 1.21075,-1.792604 l -5.09542,-2.673358 c -0.23566,2.054582 -0.16452,3.958746 0.18452,5.769923 0.34216,1.775466 0.93807,3.39433 1.70096,4.932711 0.74869,1.509758 1.66003,2.945251 2.64427,4.370705 0.96695,1.400428 2.06399,2.874674 3.15587,4.391248 2.21388,3.074964 4.59518,6.580081 6.77365,11.182939 2.22222,4.69528 4.19936,10.46644 5.54005,17.89889 0.68579,3.80146 1.01476,6.96512 1.08382,9.60422 0.071,2.71166 -0.13233,4.87519 -0.50821,6.60965 -0.38903,1.79513 -0.9669,3.14911 -1.63599,4.18154 -0.70062,1.08108 -1.52095,1.83965 -2.37796,2.37709 -0.91257,0.57229 -1.88228,0.90307 -2.81319,1.08799 -1.00543,0.19973 -1.98339,0.23254 -2.81849,0.20365 -0.92094,-0.0319 -1.74999,-0.14294 -2.31742,-0.22584 -0.33118,-0.0484 -0.60245,-0.0915 -0.81575,-0.12121 -0.11537,-0.0161 -0.21276,-0.0283 -0.29557,-0.0363 -0.0878,-0.008 -0.15714,-0.0121 -0.21104,-0.0107 z"
       id="path865"
       sodipodi:nodetypes="czccccc"
       inkscape:original-d="m 124.62908,143.06312 c 1.77894,-0.0454 18.8984,6.71996 13.9726,-23.87344 -4.9258,-30.593399 -20.37857,-33.638371 -18.24924,-47.893038 -6.32079,5.9206 -1.60481,13.50698 -11.37517,30.062298 C 105.56208,96.0291 91.69785,81.374805 88.587254,71.114628 83.523922,82.474029 70.956586,83.687791 64.044183,96.831869 84.455798,87.125311 88.685794,100.5838 95.296394,112.8806"
       inkscape:path-effect="#path-effect867" />
    <path
       style="display:none;fill:#ff7b29;fill-opacity:1;fill-rule:nonzero;stroke:none;stroke-width:0.264583px;stroke-linecap:butt;stroke-linejoin:miter;stroke-opacity:1"
       d="m 108.97727,101.35894 c 0.45326,-0.0116 0.79389,0.10727 0.79926,0.31771 l -0.0172,-0.67578 c -0.0106,-0.41572 -0.81298,-0.85525 -0.82359,-1.270968 l 1.56364,2.211108 c 0.33543,0.11926 2.03805,-3.314407 4.2006,-8.316268 2.36735,-5.475556 5.00418,-12.163948 7.07259,-18.047209 1.11639,-3.175388 2.15995,-6.375914 3.12987,-9.599061 -4.17668,0.703399 -7.82444,3.227287 -9.95503,6.887886 -0.5651,0.970905 -1.02302,2.022585 -1.40001,3.026601 -0.41691,1.110336 -0.77433,2.269978 -1.07696,3.345902 -0.52468,1.865397 -1.00847,3.935098 -1.31901,5.34027 -0.12918,0.584534 -0.28043,1.273933 -0.42649,1.925271 -0.46793,2.086731 -1.07478,4.669373 -1.89869,7.02107 -0.0612,0.174767 -0.12375,0.348621 -0.18763,0.521386 -2.80249,-3.975218 -5.85414,-7.859378 -9.032025,-12.048676 -2.013818,-2.654746 -3.930847,-5.252915 -5.526931,-7.706415 -1.563693,-2.403708 -2.788168,-4.620472 -3.544027,-6.634512 -0.900192,-2.398628 -1.302084,-4.955557 -1.181141,-7.514684 -2.199032,2.135219 -3.469407,5.050093 -3.536487,8.11447 -0.02514,1.148471 0.120369,2.251477 0.403685,3.307932 0.282009,1.051577 0.697493,2.046021 1.205863,2.987592 1.008228,1.867374 2.407335,3.572479 3.940941,5.153014 1.53648,1.583495 3.280204,3.113982 5.012914,4.59782 1.767581,1.5137 3.50848,2.966496 5.165488,4.483933 1.65943,1.519652 3.16702,3.044372 4.40819,4.629245 1.25302,1.60001 2.21409,3.23595 2.78392,4.955221 0.28791,0.868657 0.47736,1.762742 0.55292,2.689492 0.0763,0.93517 0.0371,1.91052 -0.13843,2.93302 -0.35736,2.08165 -1.28135,4.36367 -2.94774,6.87873 -0.0367,0.0554 -0.0736,0.11064 -0.11068,0.16577 0,0 -0.0253,0.12434 -0.0253,0.12434 -0.42596,2.10202 -0.44913,2.72978 -0.3268,2.76403 l 1.04505,0.29261 c -0.31756,-0.0889 0.21889,-2.79424 0.21889,-2.79424 0,0 -0.94639,2.59055 -1.26394,2.50163 l 1.04505,0.29261 c 0.11814,0.0331 0.40776,-0.47738 1.08277,-2.32974 1.83377,-2.58133 2.98916,-5.05003 3.52868,-7.44547 0.26861,-1.19262 0.38299,-2.3604 0.35524,-3.50644 -0.0275,-1.135866 -0.19435,-2.240245 -0.48146,-3.315919 -0.56814,-2.128558 -1.59801,-4.111845 -2.9015,-5.984631 -1.28668,-1.848641 -2.84194,-3.59254 -4.4868,-5.267948 -1.62811,-1.658349 -3.36324,-3.268349 -5.003861,-4.832923 -1.646995,-1.570657 -3.186909,-3.08436 -4.495681,-4.601063 -1.311084,-1.519382 -2.324996,-2.968429 -2.971724,-4.390228 -0.320321,-0.70421 -0.544151,-1.388547 -0.672268,-2.05767 -0.127867,-0.667821 -0.162421,-1.329387 -0.09977,-1.99677 l -4.717628,0.599786 c 0.683489,2.609986 1.908021,5.323965 3.378491,8.033902 1.509596,2.782043 3.337519,5.664651 5.193248,8.48489 4.38881,6.669883 8.020093,11.760535 11.225463,17.645604 0.70586,1.29596 1.37594,2.61108 2.00949,3.94387 1.52771,-0.92996 2.914,-2.07443 4.11644,-3.39839 2.06918,-2.27828 3.48311,-4.969658 4.48358,-7.37207 1.19045,-2.858586 2.00209,-5.830265 2.5355,-8.014672 0.17489,-0.716208 0.33237,-1.401272 0.4704,-2.025851 0.38226,-1.729638 0.65504,-3.277857 1.03501,-5.27122 0.19348,-1.014996 0.38972,-2.00196 0.60004,-2.900158 0.19522,-0.833706 0.38277,-1.506338 0.57552,-2.071779 l -6.82516,-2.711175 c -1.61634,6.303472 -3.35667,12.263 -5.10572,18.370952 -1.4858,5.188664 -2.49597,8.853123 -2.16107,8.972193 l 1.52102,0.54075 0.0426,1.67036 c -0.0106,-0.41572 0.7683,-0.8956 0.75769,-1.31133 l -0.0172,-0.67578 c 0.005,0.21044 -0.32876,0.3465 -0.78202,0.35807 z"
       id="path883"
       sodipodi:nodetypes="ccccccc"
       inkscape:original-d="m 108.97727,101.35894 c 1.77894,-0.0454 0,0 0,0 0,0 5.39223,-14.100172 9.26999,-26.853311 -2.92109,5.880226 -3.1935,19.711406 -9.26999,26.853311 -6.9899,-12.002639 -17.897308,-23.815893 -20.747488,-32.984926 -0.70535,14.543236 33.075938,22.31819 18.777078,43.051536 -1.66819,5.95786 0,0 0,0"
       inkscape:path-effect="#path-effect885" />
  </g>
</svg>
